<svg xmlns="http://www.w3.org/2000/svg" viewBox="0 0 24 24" fill="none">
  <path d="M12 3C7.03 3 3 6.58 3 11c0 3.57 2.77 6.5 6.21 6.5h1.17c.72 0 1.12.82.7 1.41-.59.82.02 2.09 1.03 2.09H13c4.42 0 8-3.58 8-8.12C21 7.43 17.03 3 12 3Z" stroke="currentColor" stroke-width="1.8" stroke-linejoin="round"/>
  <path d="M7.8 11.3h.01M9.45 7.85h.01M13.65 7.6h.01M16.45 10.45h.01" stroke="currentColor" stroke-width="2.2" stroke-linecap="round"/>
  <path d="M15.7 15.45c.56 0 1.02-.45 1.02-1.01s-.46-1.01-1.02-1.01-1.01.45-1.01 1.01.45 1.01 1.01 1.01Z" fill="currentColor"/>
</svg>
