<svg xmlns="http://www.w3.org/2000/svg" version="1.1" viewBox="52.27 308.55 1607.67 1058.67">
<g fill="#ffffff">
<path d="   M 267.04 639.21   A 0.08 0.08 0.0 0 0 266.88 639.24   L 268.37 822.70   A 0.18 0.18 0.0 0 1 268.20 822.88   L 137.26 828.80   A 0.27 0.27 0.0 0 1 136.98 828.53   L 136.98 526.05   A 1.04 1.02 -60.5 0 0 136.84 525.53   L 120.95 498.92   A 0.29 0.29 0.0 0 0 120.56 498.82   Q 107.70 506.56 94.39 505.04   Q 71.96 502.49 59.41 482.98   C 46.70 463.24 51.61 434.71 69.04 419.29   Q 72.93 415.85 76.75 412.89   A 1.00 1.00 0.0 0 0 77.14 412.02   C 75.82 395.25 77.96 380.50 87.96 366.76   Q 98.87 351.75 115.02 343.87   C 124.70 339.14 135.43 338.00 145.27 339.70   Q 154.77 341.35 157.75 341.82   Q 160.86 342.32 163.85 340.09   Q 177.74 329.75 180.63 327.62   C 200.16 313.24 225.82 307.54 250.25 308.69   Q 261.87 309.24 272.36 314.12   Q 294.80 324.58 298.18 349.16   A 0.68 0.66 3.3 0 0 298.69 349.72   Q 318.69 354.50 327.16 371.35   C 337.48 391.88 327.13 409.81 311.35 423.14   Q 300.30 432.48 287.84 437.45   A 0.53 0.53 0.0 0 0 287.54 438.11   Q 291.00 448.59 291.60 450.71   C 293.01 455.73 295.96 460.61 298.26 465.75   Q 299.82 469.25 298.92 472.57   A 1.48 1.38 -48.3 0 0 298.94 473.35   L 344.28 613.88   A 0.33 0.33 0.0 0 0 344.91 613.90   L 419.41 413.82   A 0.60 0.60 0.0 0 1 419.96 413.43   L 572.66 411.45   A 0.37 0.37 0.0 0 1 573.03 411.84   L 552.35 830.29   A 0.45 0.44 -0.0 0 1 551.92 830.71   L 422.71 838.03   A 0.38 0.38 0.0 0 1 422.30 837.65   L 420.53 618.62   A 0.22 0.22 0.0 0 0 420.10 618.56   L 364.21 795.69   A 0.54 0.53 -81.0 0 1 363.70 796.07   L 314.37 796.71   A 0.67 0.66 -8.1 0 1 313.73 796.24   L 267.04 639.21   Z   M 202.05 324.13   Q 190.05 329.11 179.60 337.31   Q 170.42 344.53 168.33 346.07   C 163.58 349.57 160.67 349.53 154.85 348.29   Q 148.05 346.83 140.91 346.44   Q 132.54 345.83 124.25 348.50   Q 112.73 352.21 102.92 360.89   C 90.16 372.18 81.57 386.46 81.18 403.52   Q 81.02 410.53 81.46 416.65   A 3.63 3.61 70.3 0 1 79.95 419.87   C 68.97 427.64 60.84 437.44 57.80 451.04   Q 51.82 480.67 78.99 494.22   Q 92.75 500.11 106.70 496.60   Q 112.32 495.20 116.42 492.31   A 1.60 1.60 0.0 0 0 115.17 489.43   C 102.06 492.16 87.98 488.03 80.57 476.06   A 0.24 0.24 0.0 0 1 80.90 475.73   C 89.99 481.91 100.75 484.58 111.60 482.53   A 0.47 0.46 69.4 0 0 111.91 481.83   C 109.58 477.87 111.42 473.00 113.95 469.44   Q 121.90 458.26 134.58 453.09   A 0.42 0.42 0.0 0 1 135.02 453.79   C 127.17 460.86 119.05 469.27 115.54 479.36   A 1.68 1.63 45.8 0 0 115.54 480.45   Q 116.19 482.35 117.34 483.80   L 137.44 519.42   A 0.50 0.49 -39.8 0 0 138.25 519.49   Q 155.36 499.03 179.28 487.27   Q 195.26 479.42 202.61 476.59   Q 234.17 464.46 268.25 464.48   Q 278.27 464.49 289.02 465.20   L 293.43 465.60   A 0.50 0.50 0.0 0 0 293.91 464.87   C 286.80 451.68 280.84 438.61 277.44 424.18   A 1.15 1.13 -83.1 0 0 276.86 423.43   Q 263.31 416.32 253.06 414.20   Q 203.74 403.96 162.75 430.94   A 0.32 0.32 0.0 0 1 162.35 430.44   Q 185.49 407.87 217.58 404.98   Q 238.03 403.14 255.48 408.03   A 1.34 1.33 -51.1 0 0 256.46 407.92   Q 261.00 405.46 265.84 400.85   Q 282.17 385.31 290.14 364.30   A 0.37 0.36 -37.4 0 1 290.85 364.39   C 291.67 373.57 289.03 382.08 284.02 389.92   Q 276.53 401.64 265.33 410.98   A 0.35 0.35 0.0 0 0 265.41 411.57   L 276.09 416.39   A 0.98 0.97 44.0 0 0 276.94 416.38   Q 287.55 411.31 295.67 403.68   C 303.49 396.34 307.88 387.28 311.65 377.20   A 0.31 0.31 0.0 0 1 312.25 377.30   C 312.51 398.65 300.68 414.38 281.63 422.55   A 0.61 0.60 73.0 0 0 281.27 423.23   L 282.68 430.45   A 0.55 0.54 -14.9 0 0 283.39 430.86   Q 290.49 428.53 297.00 424.51   Q 310.59 416.29 319.99 403.73   C 328.34 392.57 330.22 377.86 319.53 367.42   C 313.44 360.98 306.33 358.01 297.78 356.59   A 2.34 2.29 -16.4 0 1 296.48 355.90   C 293.67 352.87 294.06 348.07 293.36 344.19   Q 292.18 337.58 287.99 332.49   Q 286.97 330.81 285.95 329.78   C 277.78 321.57 266.57 317.74 254.29 316.50   Q 227.15 313.75 202.05 324.13   Z"/>
<path d="   M 199.18 401.66   A 0.28 0.28 0.0 0 1 198.63 401.65   Q 196.93 394.37 194.91 388.09   C 190.96 375.87 184.06 365.44 175.12 356.41   A 0.23 0.22 -7.0 0 1 175.40 356.06   C 191.38 365.13 204.48 382.15 199.18 401.66   Z"/>
<path d="   M 1082.79 456.36   A 0.14 0.13 -23.8 0 0 1083.03 456.45   Q 1091.51 446.45 1100.80 438.04   Q 1119.05 421.52 1142.67 414.53   C 1157.58 410.12 1175.06 410.26 1189.76 413.22   C 1224.25 420.17 1248.84 443.08 1263.11 474.39   Q 1275.75 502.14 1281.39 534.35   C 1287.52 569.35 1289.16 604.77 1289.28 640.75   Q 1289.59 728.65 1285.58 810.91   A 0.40 0.39 -87.8 0 1 1285.18 811.29   L 1121.79 807.60   A 0.53 0.53 0.0 0 1 1121.28 806.98   Q 1130.46 754.91 1137.01 703.00   Q 1143.34 652.92 1143.35 601.76   C 1143.35 588.38 1141.21 512.83 1120.57 512.09   C 1099.37 511.33 1089.38 534.43 1085.45 551.47   Q 1080.11 574.56 1079.27 598.75   C 1076.75 671.08 1075.28 745.26 1073.31 811.98   A 0.45 0.45 0.0 0 1 1072.88 812.41   L 928.20 817.93   A 0.48 0.48 0.0 0 1 927.70 817.41   C 936.04 683.96 944.32 550.51 949.26 417.57   A 0.28 0.27 -1.2 0 1 949.52 417.31   L 1083.21 411.27   A 0.57 0.56 89.1 0 1 1083.80 411.85   L 1082.79 456.36   Z"/>
<path d="   M 878.63 672.85   A 0.25 0.25 0.0 0 1 879.02 673.08   L 865.87 801.55   A 1.79 1.78 -15.5 0 1 865.16 802.80   Q 840.89 820.58 810.62 827.63   C 782.03 834.28 753.28 836.04 724.73 830.86   C 691.30 824.80 661.09 806.84 638.49 781.23   C 606.74 745.25 591.05 696.34 588.40 648.89   Q 585.33 593.89 602.65 542.13   C 618.68 494.23 650.86 449.93 697.85 428.46   Q 722.54 417.17 749.73 414.66   C 771.99 412.61 794.50 414.07 815.48 421.27   Q 859.41 436.34 885.11 477.15   C 916.04 526.26 920.12 589.14 912.68 645.24   A 0.63 0.63 0.0 0 1 912.09 645.78   Q 869.95 648.41 825.73 654.71   Q 785.45 660.44 719.77 670.23   A 0.33 0.33 0.0 0 0 719.51 670.66   C 731.25 703.64 762.24 721.58 796.93 713.12   Q 814.51 708.83 833.14 699.62   Q 856.32 688.16 878.63 672.85   Z   M 717.81 596.02   L 801.29 587.88   A 0.36 0.35 89.1 0 0 801.60 587.55   Q 802.35 573.82 798.93 561.08   C 795.98 550.07 788.65 539.10 777.72 535.54   Q 771.87 533.63 763.50 534.59   C 754.46 535.63 747.09 540.51 740.64 547.15   C 728.38 559.76 721.15 578.11 717.50 595.68   A 0.29 0.28 2.9 0 0 717.81 596.02   Z"/>
<path d="   M 143.36 438.24   A 0.56 0.56 0.0 0 1 143.53 439.33   Q 127.31 445.56 111.91 438.80   C 101.58 434.27 94.77 427.19 88.23 418.46   A 0.32 0.32 0.0 0 1 88.68 418.01   Q 99.01 425.68 110.34 431.38   Q 114.61 433.53 123.49 435.48   Q 133.41 437.66 143.36 438.24   Z"/>
<path d="   M 237.72 1171.07   C 240.35 1097.03 243.73 1004.56 244.79 923.22   A 0.67 0.66 -2.4 0 1 245.41 922.56   L 327.87 916.67   A 0.35 0.35 0.0 0 1 328.24 917.02   L 328.24 944.08   A 0.33 0.33 0.0 0 0 328.83 944.29   C 342.41 927.59 359.24 915.36 381.47 915.19   C 409.93 914.96 430.30 930.72 441.81 955.72   Q 449.90 973.31 453.41 993.06   Q 458.30 1020.56 459.21 1050.00   Q 460.96 1106.90 459.80 1161.30   A 0.65 0.65 0.0 0 1 459.15 1161.94   L 358.42 1161.94   A 0.66 0.66 0.0 0 1 357.77 1161.18   C 364.08 1118.26 369.68 1074.29 368.06 1031.00   Q 367.60 1018.50 365.25 1004.00   C 364.05 996.64 362.27 988.94 358.49 982.73   Q 355.14 977.22 348.76 978.99   C 345.83 979.81 343.60 980.82 341.46 982.95   Q 336.27 988.11 333.62 995.92   C 329.71 1007.41 328.52 1020.48 328.37 1032.26   Q 328.15 1049.70 328.06 1165.37   A 0.60 0.60 0.0 0 1 327.49 1165.97   L 238.28 1171.62   A 0.53 0.53 0.0 0 1 237.72 1171.07   Z"/>
<path d="   M 1545.79 1323.72   A 0.34 0.34 0.0 0 1 1545.56 1324.22   L 1412.36 1350.30   A 0.43 0.42 -15.1 0 1 1411.88 1350.03   L 1366.21 1223.68   A 0.41 0.40 79.0 0 0 1365.82 1223.41   L 1329.60 1224.79   A 0.43 0.42 -0.0 0 0 1329.19 1225.19   L 1323.88 1347.93   A 0.62 0.62 0.0 0 1 1323.26 1348.52   L 1196.46 1348.52   A 0.60 0.59 0.5 0 1 1195.86 1347.92   Q 1198.88 1195.93 1201.60 1082.99   C 1202.40 1049.48 1202.86 989.93 1205.29 943.10   A 1.23 1.21 -8.8 0 1 1206.09 942.02   Q 1259.24 922.52 1316.26 918.61   Q 1344.52 916.67 1372.50 916.80   C 1436.24 917.09 1501.54 941.78 1532.43 1001.07   C 1542.98 1021.33 1547.07 1043.11 1547.19 1066.01   Q 1547.30 1088.35 1543.16 1108.21   Q 1535.27 1145.97 1508.05 1172.31   Q 1493.14 1186.73 1475.56 1197.51   A 0.55 0.54 60.0 0 0 1475.37 1198.24   L 1545.79 1323.72   Z   M 1333.28 1132.28   Q 1350.33 1133.15 1366.82 1128.80   C 1390.28 1122.62 1412.17 1106.24 1413.60 1080.10   C 1415.25 1049.84 1400.78 1022.53 1368.44 1019.05   Q 1353.42 1017.43 1338.05 1021.52   A 0.68 0.67 -6.5 0 0 1337.55 1022.14   L 1332.80 1131.75   A 0.51 0.51 0.0 0 0 1333.28 1132.28   Z"/>
<path d="   M 1133.98 1196.85   L 1092.72 1207.19   Q 1089.72 1204.75 1086.25 1204.94   C 1076.46 1205.45 1068.07 1205.79 1061.96 1198.90   Q 1059.53 1196.15 1057.04 1187.24   Q 1051.81 1168.50 1049.35 1150.39   Q 1041.15 1089.84 1032.20 1035.27   Q 1031.13 1028.79 1030.45 1021.50   Q 1028.98 1005.80 1027.27 980.75   C 1026.22 965.29 1026.18 951.17 1031.28 937.05   Q 1033.59 930.66 1039.72 927.70   C 1043.93 925.66 1055.26 922.32 1059.50 925.63   Q 1061.30 927.04 1063.41 930.50   Q 1070.03 941.37 1073.09 954.28   Q 1101.93 1075.80 1133.98 1196.85   Z"/>
<path d="   M 1010.57 930.11   A 0.38 0.38 0.0 0 1 1010.96 930.54   Q 1004.01 980.56 985.59 1113.93   Q 983.12 1131.81 980.55 1143.44   Q 978.02 1154.87 971.04 1187.96   A 0.31 0.31 0.0 0 0 971.34 1188.33   L 996.69 1188.33   A 0.40 0.40 0.0 0 1 997.09 1188.73   L 997.09 1279.02   A 0.43 0.42 0.0 0 1 996.66 1279.44   L 958.85 1279.44   A 0.52 0.50 6.3 0 0 958.35 1279.83   L 943.63 1346.39   A 0.43 0.42 8.6 0 1 943.18 1346.72   L 792.23 1331.92   A 0.47 0.47 0.0 0 1 791.83 1331.32   L 910.04 935.71   A 0.78 0.78 0.0 0 1 910.74 935.16   L 1010.57 930.11   Z"/>
<path d="   M 636.80 1130.20   L 635.29 1151.62   A 0.40 0.40 0.0 0 1 634.86 1151.99   L 613.32 1150.47   A 0.40 0.40 0.0 0 1 612.95 1150.04   L 615.25 1117.40   A 0.40 0.40 0.0 0 1 615.68 1117.03   L 637.23 1118.56   A 0.40 0.40 0.0 0 0 637.66 1118.19   L 638.39 1107.84   A 0.40 0.40 0.0 0 1 638.82 1107.47   L 649.19 1108.20   A 0.40 0.40 0.0 0 0 649.62 1107.83   L 650.35 1097.46   A 0.40 0.40 0.0 0 0 649.98 1097.03   L 617.25 1094.72   A 0.40 0.40 0.0 0 1 616.88 1094.29   L 619.19 1061.55   A 0.40 0.40 0.0 0 1 619.62 1061.18   L 652.35 1063.49   A 0.40 0.40 0.0 0 1 652.72 1063.92   L 651.20 1085.48   A 0.40 0.40 0.0 0 0 651.57 1085.91   L 673.12 1087.43   A 0.40 0.40 0.0 0 0 673.55 1087.06   L 675.07 1065.47   A 0.40 0.40 0.0 0 1 675.50 1065.10   L 708.12 1067.41   A 0.40 0.40 0.0 0 1 708.49 1067.84   L 706.97 1089.44   A 0.40 0.40 0.0 0 1 706.54 1089.81   L 673.91 1087.50   A 0.40 0.40 0.0 0 0 673.48 1087.87   L 671.96 1109.41   A 0.40 0.40 0.0 0 1 671.53 1109.78   L 661.17 1109.05   A 0.40 0.40 0.0 0 0 660.74 1109.42   L 659.22 1130.98   A 0.40 0.40 0.0 0 1 658.79 1131.35   L 637.23 1129.83   A 0.40 0.40 0.0 0 0 636.80 1130.20   Z"/>
<path d="   M 701.55 1156.01   Q 700.80 1156.66 699.99 1156.60   Q 662.17 1153.94 657.98 1153.66   A 0.35 0.34 4.0 0 1 657.65 1153.29   L 659.17 1131.80   A 0.43 0.42 -85.4 0 1 659.63 1131.40   Q 677.28 1132.66 681.14 1132.95   C 681.28 1132.96 681.29 1132.96 681.44 1132.83   C 681.58 1132.71 681.58 1132.70 681.59 1132.56   Q 681.85 1128.69 683.08 1111.04   A 0.43 0.42 3.5 0 1 683.54 1110.64   L 705.03 1112.16   A 0.35 0.34 -85.9 0 1 705.35 1112.54   Q 705.04 1116.72 702.36 1154.55   Q 702.30 1155.36 701.55 1156.01   Z"/>
<path d="   M 490.58 1267.95   L 489.25 1227.40   Q 494.51 1227.92 497.72 1224.47   C 506.96 1214.52 516.72 1206.36 528.88 1201.86   C 543.38 1196.49 558.51 1195.64 574.00 1195.39   Q 638.05 1194.37 665.75 1194.36   C 674.17 1194.35 679.83 1207.23 671.23 1211.91   Q 669.42 1212.89 665.13 1213.04   Q 577.27 1216.17 562.84 1216.60   Q 556.51 1216.79 554.31 1218.16   C 548.09 1222.02 547.68 1232.04 554.93 1235.21   Q 556.37 1235.84 559.65 1235.80   Q 612.43 1235.17 665.25 1232.17   C 671.36 1231.82 677.94 1234.02 678.64 1240.76   C 679.48 1248.81 672.42 1251.80 665.75 1251.86   Q 613.32 1252.28 559.25 1255.16   C 548.92 1255.71 548.01 1269.80 556.73 1273.34   Q 558.86 1274.21 563.66 1274.06   Q 598.93 1272.96 669.99 1270.87   Q 671.89 1270.81 674.45 1272.51   C 680.92 1276.81 677.64 1286.16 671.60 1288.80   Q 669.84 1289.56 664.59 1289.86   Q 586.54 1294.33 565.74 1294.87   C 544.73 1295.43 526.10 1292.03 509.87 1279.63   Q 504.52 1275.55 499.41 1270.58   Q 496.13 1267.40 490.58 1267.95   Z"/>
</g>
<g fill="#1fa8ff">
<path d="   M 202.05 324.13   Q 188.34 332.98 182.64 337.64   Q 175.78 343.25 169.04 349.03   Q 165.16 352.36 160.46 352.84   Q 156.95 353.19 151.26 350.92   Q 146.10 348.86 140.91 346.44   Q 148.05 346.83 154.85 348.29   C 160.67 349.53 163.58 349.57 168.33 346.07   Q 170.42 344.53 179.60 337.31   Q 190.05 329.11 202.05 324.13   Z"/>
<path d="   M 319.53 367.42   Q 310.92 363.95 301.85 362.87   Q 298.21 362.44 296.48 361.19   Q 292.71 358.48 292.22 353.51   Q 291.12 342.28 287.99 332.49   Q 292.18 337.58 293.36 344.19   C 294.06 348.07 293.67 352.87 296.48 355.90   A 2.34 2.29 -16.4 0 0 297.78 356.59   C 306.33 358.01 313.44 360.98 319.53 367.42   Z"/>
<path d="   M 297.00 424.51   Q 290.49 428.53 283.39 430.86   A 0.55 0.54 -14.9 0 1 282.68 430.45   L 281.27 423.23   A 0.61 0.60 73.0 0 1 281.63 422.55   C 300.68 414.38 312.51 398.65 312.25 377.30   A 0.31 0.31 0.0 0 0 311.65 377.20   C 307.88 387.28 303.49 396.34 295.67 403.68   Q 287.55 411.31 276.94 416.38   A 0.98 0.97 44.0 0 1 276.09 416.39   L 265.41 411.57   A 0.35 0.35 0.0 0 1 265.33 410.98   Q 276.53 401.64 284.02 389.92   C 289.03 382.08 291.67 373.57 290.85 364.39   A 0.37 0.36 -37.4 0 0 290.14 364.30   Q 282.17 385.31 265.84 400.85   Q 261.00 405.46 256.46 407.92   A 1.34 1.33 -51.1 0 1 255.48 408.03   Q 238.03 403.14 217.58 404.98   Q 185.49 407.87 162.35 430.44   A 0.32 0.32 0.0 0 0 162.75 430.94   Q 203.74 403.96 253.06 414.20   Q 263.31 416.32 276.86 423.43   A 1.15 1.13 -83.1 0 1 277.44 424.18   C 280.84 438.61 286.80 451.68 293.91 464.87   A 0.50 0.50 0.0 0 1 293.43 465.60   L 289.02 465.20   Q 284.15 458.91 279.94 452.81   Q 271.12 440.03 266.57 425.07   A 1.32 1.32 0.0 0 0 265.82 424.24   Q 259.55 421.53 253.05 420.17   Q 234.51 416.29 215.77 416.86   C 193.84 417.52 173.12 426.07 155.38 438.67   A 0.26 0.26 0.0 0 1 155.01 438.33   Q 160.37 428.98 168.07 422.07   Q 180.08 411.29 194.53 404.43   A 0.83 0.83 0.0 0 0 195.00 403.57   C 192.39 383.93 180.11 367.12 168.03 352.00   A 0.37 0.37 0.0 0 1 168.38 351.41   C 182.66 353.80 195.15 362.56 200.73 376.29   Q 205.07 386.97 203.41 401.70   A 0.42 0.42 0.0 0 0 203.89 402.17   Q 224.36 399.42 241.98 400.49   Q 247.93 400.85 256.94 402.65   A 1.02 1.00 -59.9 0 0 257.84 402.40   C 271.86 389.68 282.65 374.50 290.53 357.28   A 0.27 0.27 0.0 0 1 291.03 357.32   C 296.67 375.99 289.97 395.52 276.74 409.34   A 0.70 0.69 -49.0 0 0 276.81 410.36   Q 277.94 411.24 279.54 411.36   A 1.47 1.44 30.7 0 0 280.44 411.14   Q 303.43 396.37 311.67 370.56   A 0.48 0.48 0.0 0 1 312.56 370.51   Q 317.64 381.65 314.70 393.66   Q 310.34 411.46 297.00 424.51   Z   M 199.18 401.66   C 204.48 382.15 191.38 365.13 175.40 356.06   A 0.23 0.22 -7.0 0 0 175.12 356.41   C 184.06 365.44 190.96 375.87 194.91 388.09   Q 196.93 394.37 198.63 401.65   A 0.28 0.28 0.0 0 0 199.18 401.66   Z"/>
<path d="   M 85.35 412.92   C 103.33 427.68 124.95 434.38 147.81 436.74   A 0.36 0.36 0.0 0 1 148.04 437.34   C 138.94 447.23 127.59 447.41 115.33 444.13   C 102.86 440.79 87.54 425.70 84.92 413.18   A 0.27 0.27 0.0 0 1 85.35 412.92   Z   M 143.36 438.24   Q 133.41 437.66 123.49 435.48   Q 114.61 433.53 110.34 431.38   Q 99.01 425.68 88.68 418.01   A 0.32 0.32 0.0 0 0 88.23 418.46   C 94.77 427.19 101.58 434.27 111.91 438.80   Q 127.31 445.56 143.53 439.33   A 0.56 0.56 0.0 0 0 143.36 438.24   Z"/>
<path d="   M 1476.07 445.82   A 0.46 0.46 0.0 0 1 1476.51 446.41   Q 1465.36 485.05 1456.45 520.65   C 1444.83 567.08 1436.40 614.85 1437.96 662.73   C 1438.45 677.84 1440.68 692.15 1447.45 704.79   Q 1452.29 713.83 1462.39 713.89   C 1502.75 714.16 1516.90 606.55 1520.59 578.37   Q 1526.58 532.50 1529.00 473.27   Q 1530.10 446.30 1528.91 430.60   A 0.48 0.48 0.0 0 1 1529.41 430.08   Q 1578.59 432.25 1633.27 432.52   Q 1648.02 432.59 1659.66 431.97   A 0.27 0.26 2.6 0 1 1659.94 432.27   Q 1643.68 547.70 1631.92 661.75   Q 1625.23 726.69 1614.82 831.25   A 0.34 0.34 0.0 0 1 1614.51 831.55   L 1498.12 838.14   A 0.32 0.31 -88.4 0 1 1497.80 837.79   L 1503.42 795.25   A 0.27 0.27 0.0 0 0 1502.96 795.03   C 1480.41 819.35 1439.78 822.81 1410.46 813.00   C 1352.95 793.74 1318.14 727.35 1312.67 670.51   Q 1311.94 663.00 1312.20 647.01   Q 1313.27 581.48 1321.45 519.49   Q 1326.66 479.96 1335.39 445.42   Q 1335.72 444.11 1336.82 440.30   A 0.55 0.55 0.0 0 1 1337.39 439.90   C 1396.38 443.55 1433.04 445.87 1476.07 445.82   Z"/>
<path d="   M 117.34 483.80   Q 116.19 482.35 115.54 480.45   A 1.68 1.63 45.8 0 1 115.54 479.36   C 119.05 469.27 127.17 460.86 135.02 453.79   A 0.42 0.42 0.0 0 0 134.58 453.09   Q 121.90 458.26 113.95 469.44   C 111.42 473.00 109.58 477.87 111.91 481.83   A 0.47 0.46 69.4 0 1 111.60 482.53   C 100.75 484.58 89.99 481.91 80.90 475.73   A 0.24 0.24 0.0 0 0 80.57 476.06   C 87.98 488.03 102.06 492.16 115.17 489.43   A 1.60 1.60 0.0 0 1 116.42 492.31   Q 112.32 495.20 106.70 496.60   Q 102.45 495.62 98.29 494.83   Q 85.09 492.35 78.63 481.13   Q 74.93 474.72 72.35 468.05   A 0.15 0.15 0.0 0 1 72.58 467.88   Q 87.45 478.61 105.25 475.83   A 1.25 1.24 -79.0 0 0 106.13 475.23   Q 118.16 454.68 142.16 448.33   A 0.18 0.18 0.0 0 1 142.34 448.63   C 132.36 458.58 121.47 470.10 117.34 483.80   Z"/>
<path d="   M 57.80 451.04   Q 57.84 473.83 73.25 488.98   Q 73.60 489.32 76.23 491.47   Q 77.70 492.68 78.99 494.22   Q 51.82 480.67 57.80 451.04   Z"/>
<path d="   M 598.46 1036.95   Q 598.49 1036.92 598.46 1036.95   A 0.21 0.02 -36.1 0 1 598.32 1037.03   L 509.59 1030.83   A 0.48 0.48 0.0 0 1 509.14 1030.32   Q 511.86 989.85 514.61 952.23   Q 514.89 948.40 518.68 945.11   Q 522.46 941.82 526.29 942.08   Q 563.93 944.59 604.39 947.53   A 0.48 0.48 0.0 0 1 604.83 948.04   L 598.62 1036.77   A 0.21 0.02 -45.9 0 1 598.52 1036.90   Q 598.49 1036.92 598.46 1036.95   Z   M 568.6625 979.2758   A 0.39 0.39 0.0 0 0 568.3014 978.8590   L 547.0758 977.3375   A 0.39 0.39 0.0 0 0 546.6590 977.6986   L 545.1375 998.9242   A 0.39 0.39 0.0 0 0 545.4986 999.3410   L 566.7242 1000.8625   A 0.39 0.39 0.0 0 0 567.1410 1000.5014   L 568.6625 979.2758   Z"/>
<path d="   M 712.57 959.18   Q 715.84 962.96 715.59 966.78   Q 713.05 1004.33 710.09 1044.69   A 0.48 0.48 0.0 0 1 709.58 1045.13   L 621.06 1038.87   A 0.21 0.02 44.2 0 1 620.93 1038.77   Q 620.91 1038.74 620.88 1038.72   Q 620.91 1038.74 620.88 1038.71   A 0.21 0.02 53.9 0 1 620.80 1038.57   L 627.05 950.05   A 0.48 0.48 0.0 0 1 627.55 949.61   Q 667.93 952.35 705.46 955.12   Q 709.28 955.40 712.57 959.18   Z   M 680.6142 987.3092   A 0.40 0.40 0.0 0 0 680.2438 986.8816   L 658.6792 985.3358   A 0.40 0.40 0.0 0 0 658.2516 985.7062   L 656.7058 1007.2708   A 0.40 0.40 0.0 0 0 657.0762 1007.6984   L 678.6408 1009.2442   A 0.40 0.40 0.0 0 0 679.0684 1008.8738   L 680.6142 987.3092   Z"/>
<path d="   M 596.77 1059.20   Q 596.74 1059.17 596.77 1059.20   A 0.21 0.02 53.9 0 1 596.85 1059.34   L 590.63 1147.81   A 0.48 0.48 0.0 0 1 590.12 1148.25   Q 549.77 1145.52 512.26 1142.77   Q 508.44 1142.49 505.16 1138.71   Q 501.88 1134.94 502.14 1131.11   Q 504.66 1093.59 507.61 1053.25   A 0.48 0.48 0.0 0 1 508.12 1052.81   L 596.59 1059.04   A 0.21 0.02 44.1 0 1 596.72 1059.14   Q 596.74 1059.17 596.77 1059.20   Z   M 560.9454 1090.6083   A 0.42 0.42 0.0 0 0 560.5557 1090.1600   L 539.0283 1088.6546   A 0.42 0.42 0.0 0 0 538.5800 1089.0443   L 537.0746 1110.5717   A 0.42 0.42 0.0 0 0 537.4643 1111.0200   L 558.9917 1112.5254   A 0.42 0.42 0.0 0 0 559.4400 1112.1357   L 560.9454 1090.6083   Z"/>
<path d="   M 1092.72 1207.19   L 1133.98 1196.85   Q 1134.36 1196.88 1134.48 1197.31   Q 1158.43 1287.06 1170.94 1330.77   Q 1173.28 1338.96 1173.03 1342.86   C 1172.21 1356.10 1162.92 1363.77 1150.45 1366.62   C 1140.12 1368.97 1129.92 1364.26 1125.07 1354.82   Q 1123.69 1352.13 1122.41 1345.68   Q 1111.55 1290.98 1096.06 1212.73   Q 1095.54 1210.08 1092.72 1207.19   Z"/>
<path d="   M 489.25 1227.40   L 490.58 1267.95   Q 392.89 1272.87 295.02 1278.31   Q 282.83 1278.98 278.32 1277.69   C 266.84 1274.38 261.53 1263.51 262.27 1251.73   C 262.86 1242.16 268.45 1234.41 277.49 1231.25   Q 281.32 1229.91 292.70 1229.80   Q 391.14 1228.85 489.25 1227.40   Z"/>
</g>
</svg>