<?xml version="1.0" encoding="UTF-8"?>
<svg id="Layer_1" data-name="Layer 1" xmlns="http://www.w3.org/2000/svg" viewBox="0 0 603.46 667.03">
  <defs>
    <style>
      .cls-1 {
        fill: #1fa8ff;
      }

      .cls-2 {
        fill: #fff;
      }
    </style>
  </defs>
  <path class="cls-1" d="M572.22,660.38l-28.67,1.28c-3.17-108.74-4.51-217.44-4.02-326.1.12-26.21.26-48.35.41-66.43.11-14.37-.81-24.58-5.08-36.72-1.19-3.38-3.69-5.38-7.5-6-11.71-1.89-22.07-.79-28.31,10.55-5.79,10.53-9.7,21.43-11.73,32.72-4.15,22.96-7.1,40.5-8.86,52.63-.61,4.21-1.1,8.62-1.48,13.25-3.35,40.72-7.3,82.1-11.87,124.13-1.71,15.77-1.98,30.98-.83,45.63.96,12.23,12.99,16.55,23.65,18.13,6.32.93,10.01,5.67,9.7,12.11-2.05,42.68-4.11,85.36-6.16,128.04l-.22.17c-.1.08-.22.12-.34.13l-74.09,3.13,1.34-261.7c.01-.07-.04-.14-.11-.15s-.14.04-.15.11l-69.79,211.43c-.06.19-.24.32-.45.32h-59.13c-.28,0-.53-.19-.61-.46l-53.38-188.54c-.03-.09-.13-.14-.23-.11-.07.02-.12.09-.12.16l-.67,218.64-42.73,1.25s-.08,0-.11-.02c-.19-.08-.21-.12-.04-.11-2.63-70.64-4.99-141.29-7.1-211.96-.12-4.04.39-7.75,2.98-10.56,4.71-5.09,8.13-8.99,10.28-11.71,10.83-13.72,15.45-29.49,16.41-47.81.25-4.63.13-16.71-.35-36.24-.41-16.7-1.23-42.27-2.48-76.71-.17-4.65-.76-7.8-1.77-9.44-3.73-6.01-12.52-7.67-16.89-1.08-.79,1.19-1.17,3.7-1.13,7.53.65,62.79,1.01,98.2,1.08,106.25.03,3.83-.03,6.11-.2,6.84-1.71,7.4-11.9,10.93-17.27,5.15-1.55-1.67-2.38-4.17-2.49-7.51-1.19-37.66-1.59-73.84-1.2-108.53.07-6.01-1.25-14.21-8.39-15.32-6.57-1.01-10.25,2.35-11.61,8.24-.51,2.19-.73,3.89-.68,5.08,1.28,28.75,1.86,65.67,1.75,110.75-.01,4.41-1.38,7.45-4.11,9.11-5.14,3.13-12.3,1.32-14.99-4.41-.6-1.29-.92-3.61-.97-6.98-.32-21.98-.91-58.8-1.77-110.46-.12-7.11-6.93-10.94-13.2-7.93-6.7,3.22-6.38,8.66-6.46,16.42-.26,23.67-.49,51.25-.68,82.74-.12,19.21-.1,37.44,6.18,54.19,4.33,11.55,11.51,21.21,20.6,30.03,3.95,3.82,5.53,6.75,5.51,12.03-.26,71.26-.78,142.59-1.57,214l-63.94,1.95,6.28-433.56c0-.38-.29-.68-.67-.69,0,0,0,0-.01,0h-.71c-.24,0-.46-.1-.61-.27-.67-.76-1.52-2.38-2.53-4.87-4.69-11.5-8.33-21.17-10.94-29.02-.09-.28-.39-.43-.66-.33-.01,0-.02,0-.04.01-6.19,2.53-11.45,3.75-15.8,3.65-17.21-.4-30.61-7.14-40.22-20.21C.85,153.4-2.09,139.19,1.45,123.57c3.71-16.4,12.68-28.67,26.93-36.81,4.12-2.36,6.36-3.64,6.73-3.85.29-.17.47-.47.49-.8.08-1.49.44-4.45,1.08-8.87,2.59-17.89,11.12-32.44,25.6-43.65,8.44-6.53,17.52-11.13,27.24-13.79,9.48-2.6,19.13-2.39,28.94.63,4.26,1.31,9.28,3.01,15.06,5.12,2.52.92,5.27.68,8.26-.71,2.33-1.09,7.71-3.87,16.14-8.34,10.25-5.44,20.88-9.04,31.9-10.81,17.16-2.75,34.06-2.15,50.7,1.79,23.54,5.57,43.16,23.88,42.59,49.67-.01.75.04,1.5.16,2.23.06.35.3.65.63.78,23.72,9.52,36.29,37.58,22.22,60.42-2.65,4.29-6.43,8.47-11.35,12.53-11.94,9.87-25.59,16.26-40.96,19.17-.27.05-.44.31-.39.58,0,0,0,.02,0,.02,2.07,8.41,4.81,18.09,8.22,29.03.93,2.96,1.05,5.94.38,8.93-.07.32-.06.66.04.97l65.33,212.04c.04.1.15.15.25.11.05-.02.08-.05.1-.1l92.35-238.31c.08-.2.27-.33.49-.33h182.47c.22,0,.4.17.4.39,0,.01,0,.02,0,.03l-31.24,498.74ZM123.19,118.04c-.1.06-.22.02-.28-.08-.06-.1-.02-.22.08-.27,16.31-11.64,34.56-17.55,54.75-17.73,17.14-.15,33.6,3.33,49.37,10.43.29.13.61.15.91.05,4.1-1.33,9.16-4.22,15.17-8.67,11.77-8.71,21.34-19.39,28.71-32.04.07-.13.23-.19.36-.12.1.05.16.16.15.27-.53,12.77-8.35,24.24-17.77,32.37-8.19,7.07-14.07,11.38-17.66,12.95-.22.09-.32.34-.23.56.03.08.08.14.15.19l10.4,7.14c.29.2.64.25.97.16,10.79-2.96,23.59-9.17,31.32-17.6,4.85-5.29,9.13-11.23,12.85-17.81.09-.15.28-.21.43-.13.12.06.18.19.16.32-2.58,19.17-16.01,34.71-34.34,40.74-3.17,1.04-5.32,1.67-6.43,1.89-.3.06-.52.33-.52.64v8.02c0,.38.31.69.69.69.04,0,.09,0,.13-.01,15.52-2.91,29.3-9.58,41.35-20.01,3.53-3.05,6.18-5.89,7.94-8.52,4.95-7.38,7.77-16.36,4.77-25.09-3.2-9.31-11.46-17.51-20.55-21.4-.76-.33-2.36-.95-4.81-1.86-.42-.16-.79-.43-1.08-.78-1.07-1.31-1.58-2.74-1.52-4.3.4-11.11.23-19.69-7.38-28.63-9.9-11.63-25.49-17.32-40.09-19.8-17.93-3.05-35.48-2.07-52.63,2.92-4.83,1.41-10.74,3.89-17.71,7.46-1.99,1.01-7.68,3.96-17.09,8.83-3.28,1.7-6.49,1.98-9.63.85-7.76-2.81-12.82-4.58-15.18-5.31-15.41-4.78-31.57-1.3-45.4,7.02-16.57,9.97-28.71,24-32.29,43.19-.7,3.75-1.29,7.92-1.76,12.49-.19,1.83-.73,2.97-1.62,3.42-10.75,5.45-20.88,12.66-26.95,23.69-6,10.9-9.15,24.31-4.45,36.11,6.04,15.15,18.71,24.28,35,27.5,6.77,1.34,15.96.08,21.97-2.63.39-.18.58-.63.44-1.03l-.61-1.68c-.13-.37-.49-.62-.9-.61-14.42.44-29.26-6.43-34.6-20.58-.06-.14.01-.31.16-.36.11-.04.23-.02.3.06,8.77,8.59,19.19,12.88,31.25,12.86.27,0,.49-.22.49-.49,0-.05,0-.09-.02-.14-1.1-3.61-.36-6.99,2.21-10.14,6.95-8.51,16.03-13.97,27.23-16.39.23-.05.45.1.5.32.04.17-.03.34-.18.44-9.99,6.68-19.63,13.64-25.17,23.43-.38.67-.44,1.47-.18,2.19l16.24,45.06c.08.23.34.36.57.28.05-.02.1-.04.14-.08,14.36-12.11,30.47-20.95,48.34-26.52,12.49-3.89,24.35-6.87,35.58-8.94,29.85-5.5,62.53-2.16,91.84,6.25.23.07.47-.07.53-.3.02-.08.02-.17,0-.25-4.71-14.77-9.41-30.47-10.24-46.68-.02-.39-.2-.75-.5-.99-28.6-23.22-71.95-29.57-106.57-18.91-6.36,1.95-12.06,3.98-17.11,6.09Z"/>
  <path class="cls-2" d="M123.19,118.04c5.05-2.11,10.75-4.14,17.11-6.09,34.62-10.66,77.97-4.31,106.57,18.91.3.24.48.6.5.99.83,16.21,5.53,31.91,10.24,46.68.07.23-.06.48-.29.55-.08.02-.16.03-.24,0-29.31-8.41-61.99-11.75-91.84-6.25-11.23,2.07-23.09,5.05-35.58,8.94-17.87,5.57-33.98,14.41-48.34,26.52-.19.16-.48.13-.63-.06-.03-.04-.06-.09-.08-.14l-16.24-45.06c-.26-.72-.2-1.52.18-2.19,5.54-9.79,15.18-16.75,25.17-23.43.19-.13.24-.39.12-.58-.1-.14-.27-.21-.44-.18-11.2,2.42-20.28,7.88-27.23,16.39-2.57,3.15-3.31,6.53-2.21,10.14.08.26-.07.53-.33.61-.05.01-.09.02-.14.02-12.06.02-22.48-4.27-31.25-12.86-.11-.11-.29-.11-.4,0-.08.08-.11.2-.06.3,5.34,14.15,20.18,21.02,34.6,20.58.41-.01.77.24.9.61l.61,1.68c.14.4-.05.85-.44,1.03-6.01,2.71-15.2,3.97-21.97,2.63-16.29-3.22-28.96-12.35-35-27.5-4.7-11.8-1.55-25.21,4.45-36.11,6.07-11.03,16.2-18.24,26.95-23.69.89-.45,1.43-1.59,1.62-3.42.47-4.57,1.06-8.74,1.76-12.49,3.58-19.19,15.72-33.22,32.29-43.19,13.83-8.32,29.99-11.8,45.4-7.02,2.36.73,7.42,2.5,15.18,5.31,3.14,1.13,6.35.85,9.63-.85,9.41-4.87,15.1-7.82,17.09-8.83,6.97-3.57,12.88-6.05,17.71-7.46,17.15-4.99,34.7-5.97,52.63-2.92,14.6,2.48,30.19,8.17,40.09,19.8,7.61,8.94,7.78,17.52,7.38,28.63-.06,1.56.45,2.99,1.52,4.3.29.35.66.62,1.08.78,2.45.91,4.05,1.53,4.81,1.86,9.09,3.89,17.35,12.09,20.55,21.4,3,8.73.18,17.71-4.77,25.09-1.76,2.63-4.41,5.47-7.94,8.52-12.05,10.43-25.83,17.1-41.35,20.01-.37.07-.74-.17-.81-.55,0-.04-.01-.09-.01-.13v-8.02c0-.31.22-.58.52-.64,1.11-.22,3.26-.85,6.43-1.89,18.33-6.03,31.76-21.57,34.34-40.74.03-.17-.09-.33-.26-.35-.13-.02-.26.05-.33.16-3.72,6.58-8,12.52-12.85,17.81-7.73,8.43-20.53,14.64-31.32,17.6-.33.09-.68.04-.97-.16l-10.4-7.14c-.2-.14-.24-.4-.11-.6.05-.07.11-.12.19-.15,3.59-1.57,9.47-5.88,17.66-12.95,9.42-8.13,17.24-19.6,17.77-32.37.02-.15-.09-.28-.24-.3-.11-.01-.22.05-.27.15-7.37,12.65-16.94,23.33-28.71,32.04-6.01,4.45-11.07,7.34-15.17,8.67-.3.1-.62.08-.91-.05-15.77-7.1-32.23-10.58-49.37-10.43-20.19.18-38.44,6.09-54.75,17.73-.1.06-.13.18-.08.27.06.1.18.13.28.08h0ZM150.57,40.12c-.1-.1-.27-.11-.37-.01-.1.1-.11.27-.01.37h0c9.39,12.88,14.8,27.16,16.23,42.83.37,4.09.71,7.35,1.02,9.79.02.13.15.22.28.2.07-.01.14-.06.17-.13,9.27-19.86-1.86-40.36-17.32-53.05ZM46.45,90.27c-.05-.05-.12-.05-.17,0-.03.04-.05.09-.03.14,3.27,7.68,7.73,14.34,13.36,19.99,10.85,10.89,23.92,15.4,39.23,13.52,1.15-.14,2.18-.36,3.09-.65.16-.06.24-.24.19-.4-.03-.09-.11-.17-.21-.19-7.75-2.1-15.31-4.65-22.68-7.66-5.11-2.09-9.19-4.26-12.23-6.52-7.24-5.39-14.09-11.47-20.55-18.23Z"/>
  <path class="cls-1" d="M150.57,40.12c15.46,12.69,26.59,33.19,17.32,53.05-.06.12-.21.16-.32.1-.07-.03-.11-.1-.13-.17-.31-2.44-.65-5.7-1.02-9.79-1.43-15.67-6.84-29.95-16.23-42.83-.1-.1-.09-.27.01-.37.1-.1.27-.09.37.01h0Z"/>
  <path class="cls-1" d="M46.45,90.27c6.46,6.76,13.31,12.84,20.55,18.23,3.04,2.26,7.12,4.43,12.23,6.52,7.37,3.01,14.93,5.56,22.68,7.66.16.05.26.22.21.38-.03.1-.1.17-.19.21-.91.29-1.94.51-3.09.65-15.31,1.88-28.38-2.63-39.23-13.52-5.63-5.65-10.09-12.31-13.36-19.99-.02-.07.01-.14.07-.17.04-.02.09,0,.13.03Z"/>
  <path class="cls-2" d="M543.55,661.66l-51.76,2.15s-.09,0-.12-.04l-.2-.17c2.05-42.68,4.11-85.36,6.16-128.04.31-6.44-3.38-11.18-9.7-12.11-10.66-1.58-22.69-5.9-23.65-18.13-1.15-14.65-.88-29.86.83-45.63,4.57-42.03,8.52-83.41,11.87-124.13.38-4.63.87-9.04,1.48-13.25,1.76-12.13,4.71-29.67,8.86-52.63,2.03-11.29,5.94-22.19,11.73-32.72,6.24-11.34,16.6-12.44,28.31-10.55,3.81.62,6.31,2.62,7.5,6,4.27,12.14,5.19,22.35,5.08,36.72-.15,18.08-.29,40.22-.41,66.43-.49,108.66.85,217.36,4.02,326.1Z"/>
  <path class="cls-2" d="M190.64,647.85l-50.52,1.71c.79-71.41,1.31-142.74,1.57-214,.02-5.28-1.56-8.21-5.51-12.03-9.09-8.82-16.27-18.48-20.6-30.03-6.28-16.75-6.3-34.98-6.18-54.19.19-31.49.42-59.07.68-82.74.08-7.76-.24-13.2,6.46-16.42,6.27-3.01,13.08.82,13.2,7.93.86,51.66,1.45,88.48,1.77,110.46.05,3.37.37,5.69.97,6.98,2.69,5.73,9.85,7.54,14.99,4.41,2.73-1.66,4.1-4.7,4.11-9.11.11-45.08-.47-82-1.75-110.75-.05-1.19.17-2.89.68-5.08,1.36-5.89,5.04-9.25,11.61-8.24,7.14,1.11,8.46,9.31,8.39,15.32-.39,34.69.01,70.87,1.2,108.53.11,3.34.94,5.84,2.49,7.51,5.37,5.78,15.56,2.25,17.27-5.15.17-.73.23-3.01.2-6.84-.07-8.05-.43-43.46-1.08-106.25-.04-3.83.34-6.34,1.13-7.53,4.37-6.59,13.16-4.93,16.89,1.08,1.01,1.64,1.6,4.79,1.77,9.44,1.25,34.44,2.07,60.01,2.48,76.71.48,19.53.6,31.61.35,36.24-.96,18.32-5.58,34.09-16.41,47.81-2.15,2.72-5.57,6.62-10.28,11.71-2.59,2.81-3.1,6.52-2.98,10.56,2.11,70.67,4.47,141.32,7.1,211.96Z"/>
</svg>