<?xml version="1.0" encoding="UTF-8"?>
<svg id="Layer_1" data-name="Layer 1" xmlns="http://www.w3.org/2000/svg" viewBox="0 0 603.47 668.15">
  <defs>
    <style>
      .cls-1 {
        fill: #1fa8ff;
      }

      .cls-2 {
        fill: #fff;
      }
    </style>
  </defs>
  <path class="cls-1" d="M327.4,399.83c.03.1.14.16.24.13.06-.02.1-.06.12-.12l92.34-238.29c.08-.2.27-.33.49-.33h182.47c.23,0,.41.18.41.41,0,0,0,.01,0,.02l-31.28,499.1c-.02.35-.3.62-.65.64l-27.47,1.2c-.27.02-.5-.19-.52-.46,0,0,0-.01,0-.02-3.92-136.19-5.09-269.29-3.52-399.3.11-8.77-1.17-17.61-3.82-26.54-1.14-3.86-2.62-8.38-7.03-9.38-10.93-2.49-22.02-2.09-28.58,7.81-8.42,12.73-12.16,27.53-14.71,42.55-4.62,27.3-7.02,37.96-8.81,58.07-5.32,59.84-9.28,101.08-11.88,123.73-1.58,13.73-2.03,27.13-1.36,40.2.22,4.42.28,9.31,2.49,12.95,4.43,7.28,13.56,10.22,21.65,11.26,6.31.81,9.94,5.81,9.63,12.1-.3,5.92-2.36,48.89-6.17,128.92-.01.23-.2.42-.44.43l-73.86,3.24c-.17,0-.31-.13-.32-.3,0,0,0,0,0-.01l1.41-262.28c0-.12-.1-.21-.21-.21-.09,0-.17.06-.2.15l-69.71,211.24c-.06.18-.23.3-.42.3h-59.33c-.18,0-.34-.12-.39-.3l-53.51-188.97c-.03-.06-.1-.09-.16-.07-.04.02-.07.05-.07.1l-.7,219.48c0,.21-.16.37-.37.38l-41.95,1.28c-.29.01-.54-.22-.55-.51h0c-2.65-70.96-5.02-141.92-7.11-212.87-.16-5.74,1.14-8.49,5.06-12.57,8.3-8.62,14.96-17.76,19.26-29.03,3.01-7.87,4.79-17.34,5.36-28.4.25-4.97.14-16.63-.34-35-.59-22.64-1.47-49.71-2.66-81.22-.27-7.04-6.24-12.55-13.19-10.93-2.45.57-4.27,1.98-5.46,4.23-.69,1.29-1.01,3.6-.98,6.93.63,64.64,1.01,100.26,1.12,106.87.07,4.51-.31,7.53-1.15,9.04-3.78,6.81-14.73,7.88-18.16-.3-.81-1.93-.67-4.81-.75-7.17-1.14-35.21-1.52-70.28-1.15-105.2.07-6.6-1.04-15.27-8.97-16.16-8.47-.95-11.89,6.19-11.63,13.42,1.35,37.69,1.89,74.77,1.61,111.24-.02,2.53-.5,4.52-1.43,5.99-4.07,6.43-14.34,5-17.48-1.49-.68-1.41-1.05-3.79-1.1-7.16-.52-33.85-1.1-70.55-1.75-110.09-.24-14.21-19.44-11.47-19.61,2.23-.58,47.63-.79,83.3-.63,107.01.06,8.23,1.38,19.57,3.53,27.81,3.85,14.76,11.96,27.78,24.33,39.07,3.53,3.23,4.3,7.12,4.28,12.17-.21,67.39-.72,138.44-1.53,213.13,0,.29-.23.52-.52.53l-63.11,1.93c-.17,0-.31-.13-.32-.3,0,0,0-.01,0-.02l6.28-434.4c0-.2-.16-.37-.36-.38l-.97-.06c-.29-.02-.55-.15-.74-.37-.65-.77-1.46-2.36-2.45-4.79-4.69-11.49-8.34-21.16-10.95-29.02-.09-.28-.39-.43-.66-.33-.01,0-.02,0-.04.01-6.19,2.53-11.45,3.75-15.8,3.65-17.21-.4-30.61-7.14-40.22-20.21C.85,153.4-2.09,139.19,1.45,123.57c3.71-16.4,12.68-28.67,26.93-36.81,4.12-2.36,6.36-3.64,6.73-3.85.29-.17.47-.47.49-.8.08-1.49.44-4.45,1.08-8.87,2.59-17.89,11.12-32.44,25.6-43.65,8.44-6.53,17.52-11.13,27.24-13.79,9.48-2.6,19.13-2.39,28.94.63,4.26,1.31,9.28,3.01,15.06,5.12,2.52.92,5.27.68,8.26-.71,2.33-1.09,7.71-3.87,16.14-8.34,10.25-5.44,20.88-9.04,31.9-10.81,17.16-2.75,34.06-2.15,50.7,1.79,23.54,5.57,43.16,23.88,42.59,49.67-.01.75.04,1.5.16,2.23.06.35.3.65.63.78,23.72,9.52,36.29,37.58,22.22,60.42-2.65,4.29-6.43,8.47-11.35,12.53-11.94,9.87-25.59,16.26-40.96,19.17-.26.05-.43.3-.38.57,0,0,0,.02,0,.02,2,8.19,4.74,17.87,8.22,29.04.93,2.97,1.05,5.95.36,8.94-.07.29-.05.6.04.89l65.35,212.09ZM123.19,118.04c-.1.06-.22.02-.28-.08-.06-.1-.02-.22.08-.27,16.31-11.64,34.56-17.55,54.75-17.73,17.14-.15,33.6,3.33,49.37,10.43.29.13.61.15.91.05,4.1-1.33,9.16-4.22,15.17-8.67,11.77-8.71,21.34-19.39,28.71-32.04.07-.13.23-.19.36-.12.1.05.16.16.15.27-.53,12.77-8.35,24.24-17.77,32.37-8.19,7.07-14.07,11.38-17.66,12.95-.22.09-.32.34-.23.56.03.08.08.14.15.19l10.4,7.14c.29.2.64.25.97.16,10.79-2.96,23.59-9.17,31.32-17.6,4.85-5.29,9.13-11.23,12.85-17.81.09-.15.28-.21.43-.13.12.06.18.19.16.32-2.58,19.17-16.01,34.71-34.34,40.74-3.27,1.07-5.44,1.71-6.52,1.91-.36.06-.63.39-.61.76l.35,7.97c.02.34.31.61.65.59.03,0,.05,0,.08,0,15.49-2.93,29.24-9.59,41.27-20,3.53-3.05,6.18-5.89,7.94-8.52,4.95-7.38,7.77-16.36,4.77-25.09-3.2-9.31-11.46-17.51-20.55-21.4-.76-.33-2.36-.95-4.81-1.86-.42-.16-.79-.43-1.08-.78-1.07-1.31-1.58-2.74-1.52-4.3.4-11.11.23-19.69-7.38-28.63-9.9-11.63-25.49-17.32-40.09-19.8-17.93-3.05-35.48-2.07-52.63,2.92-4.83,1.41-10.74,3.89-17.71,7.46-1.99,1.01-7.68,3.96-17.09,8.83-3.28,1.7-6.49,1.98-9.63.85-7.76-2.81-12.82-4.58-15.18-5.31-15.41-4.78-31.57-1.3-45.4,7.02-16.57,9.97-28.71,24-32.29,43.19-.7,3.75-1.29,7.92-1.76,12.49-.19,1.83-.73,2.97-1.62,3.42-10.75,5.45-20.88,12.66-26.95,23.69-6,10.9-9.15,24.31-4.45,36.11,6.04,15.15,18.71,24.28,35,27.5,6.77,1.34,15.96.08,21.97-2.63.39-.18.58-.63.44-1.03l-.61-1.68c-.13-.37-.49-.62-.9-.61-14.42.44-29.26-6.43-34.6-20.58-.06-.14.01-.31.16-.36.11-.04.23-.02.3.06,8.77,8.59,19.19,12.88,31.25,12.86.27,0,.49-.22.49-.49,0-.05,0-.09-.02-.14-1.1-3.61-.36-6.99,2.21-10.14,6.95-8.51,16.03-13.97,27.23-16.39.23-.05.45.1.5.32.04.17-.03.34-.18.44-9.99,6.68-19.63,13.64-25.17,23.43-.38.67-.44,1.47-.18,2.19l16.24,45.06c.08.23.34.36.57.28.05-.02.1-.04.14-.08,14.36-12.11,30.47-20.95,48.34-26.52,12.49-3.89,24.35-6.87,35.58-8.94,29.85-5.5,62.53-2.16,91.84,6.25.23.07.47-.07.53-.3.02-.08.02-.17,0-.25-4.71-14.77-9.41-30.47-10.24-46.68-.02-.39-.2-.75-.5-.99-28.6-23.22-71.95-29.57-106.57-18.91-6.36,1.95-12.06,3.98-17.11,6.09Z"/>
  <path class="cls-2" d="M123.19,118.04c5.05-2.11,10.75-4.14,17.11-6.09,34.62-10.66,77.97-4.31,106.57,18.91.3.24.48.6.5.99.83,16.21,5.53,31.91,10.24,46.68.07.23-.06.48-.29.55-.08.02-.16.03-.24,0-29.31-8.41-61.99-11.75-91.84-6.25-11.23,2.07-23.09,5.05-35.58,8.94-17.87,5.57-33.98,14.41-48.34,26.52-.19.16-.48.13-.63-.06-.03-.04-.06-.09-.08-.14l-16.24-45.06c-.26-.72-.2-1.52.18-2.19,5.54-9.79,15.18-16.75,25.17-23.43.19-.13.24-.39.12-.58-.1-.14-.27-.21-.44-.18-11.2,2.42-20.28,7.88-27.23,16.39-2.57,3.15-3.31,6.53-2.21,10.14.08.26-.07.53-.33.61-.05.01-.09.02-.14.02-12.06.02-22.48-4.27-31.25-12.86-.11-.11-.29-.11-.4,0-.08.08-.11.2-.06.3,5.34,14.15,20.18,21.02,34.6,20.58.41-.01.77.24.9.61l.61,1.68c.14.4-.05.85-.44,1.03-6.01,2.71-15.2,3.97-21.97,2.63-16.29-3.22-28.96-12.35-35-27.5-4.7-11.8-1.55-25.21,4.45-36.11,6.07-11.03,16.2-18.24,26.95-23.69.89-.45,1.43-1.59,1.62-3.42.47-4.57,1.06-8.74,1.76-12.49,3.58-19.19,15.72-33.22,32.29-43.19,13.83-8.32,29.99-11.8,45.4-7.02,2.36.73,7.42,2.5,15.18,5.31,3.14,1.13,6.35.85,9.63-.85,9.41-4.87,15.1-7.82,17.09-8.83,6.97-3.57,12.88-6.05,17.71-7.46,17.15-4.99,34.7-5.97,52.63-2.92,14.6,2.48,30.19,8.17,40.09,19.8,7.61,8.94,7.78,17.52,7.38,28.63-.06,1.56.45,2.99,1.52,4.3.29.35.66.62,1.08.78,2.45.91,4.05,1.53,4.81,1.86,9.09,3.89,17.35,12.09,20.55,21.4,3,8.73.18,17.71-4.77,25.09-1.76,2.63-4.41,5.47-7.94,8.52-12.03,10.41-25.78,17.07-41.27,20-.34.06-.66-.16-.72-.5,0-.03,0-.05,0-.08l-.35-7.97c-.02-.37.24-.7.61-.76,1.08-.2,3.25-.84,6.52-1.91,18.33-6.03,31.76-21.57,34.34-40.74.03-.17-.09-.33-.26-.35-.13-.02-.26.05-.33.16-3.72,6.58-8,12.52-12.85,17.81-7.73,8.43-20.53,14.64-31.32,17.6-.33.09-.68.04-.97-.16l-10.4-7.14c-.2-.14-.24-.4-.11-.6.05-.07.11-.12.19-.15,3.59-1.57,9.47-5.88,17.66-12.95,9.42-8.13,17.24-19.6,17.77-32.37.02-.15-.09-.28-.24-.3-.11-.01-.22.05-.27.15-7.37,12.65-16.94,23.33-28.71,32.04-6.01,4.45-11.07,7.34-15.17,8.67-.3.1-.62.08-.91-.05-15.77-7.1-32.23-10.58-49.37-10.43-20.19.18-38.44,6.09-54.75,17.73-.1.06-.13.18-.08.27.06.1.18.13.28.08h0ZM150.57,40.12c-.1-.1-.27-.11-.37-.01-.1.1-.11.27-.01.37h0c9.39,12.88,14.8,27.16,16.23,42.83.37,4.09.71,7.35,1.02,9.79.02.13.15.22.28.2.07-.01.14-.06.17-.13,9.27-19.86-1.86-40.36-17.32-53.05ZM46.45,90.27c-.05-.05-.12-.05-.17,0-.03.04-.05.09-.03.14,3.27,7.68,7.73,14.34,13.36,19.99,10.85,10.89,23.92,15.4,39.23,13.52,1.15-.14,2.18-.36,3.09-.65.16-.06.24-.24.19-.4-.03-.09-.11-.17-.21-.19-7.75-2.1-15.31-4.65-22.68-7.66-5.11-2.09-9.19-4.26-12.23-6.52-7.24-5.39-14.09-11.47-20.55-18.23Z"/>
  <path class="cls-1" d="M150.57,40.12c15.46,12.69,26.59,33.19,17.32,53.05-.06.12-.21.16-.32.1-.07-.03-.11-.1-.13-.17-.31-2.44-.65-5.7-1.02-9.79-1.43-15.67-6.84-29.95-16.23-42.83-.1-.1-.09-.27.01-.37.1-.1.27-.09.37.01h0Z"/>
  <path class="cls-1" d="M46.45,90.27c6.46,6.76,13.31,12.84,20.55,18.23,3.04,2.26,7.12,4.43,12.23,6.52,7.37,3.01,14.93,5.56,22.68,7.66.16.05.26.22.21.38-.03.1-.1.17-.19.21-.91.29-1.94.51-3.09.65-15.31,1.88-28.38-2.63-39.23-13.52-5.63-5.65-10.09-12.31-13.36-19.99-.02-.07.01-.14.07-.17.04-.02.09,0,.13.03Z"/>
</svg>