<svg xmlns="http://www.w3.org/2000/svg" version="1.1" viewBox="58.65 338.51 1607.74 1059.06">
<g fill="#000000">
<path d="   M 426.53 648.54   L 370.62 825.73   A 0.64 0.63 -81.6 0 1 370.03 826.17   L 320.84 826.81   A 0.78 0.77 81.0 0 1 320.09 826.26   L 273.50 669.57   A 0.11 0.11 0.0 0 0 273.28 669.60   L 274.76 852.88   A 0.11 0.11 0.0 0 1 274.66 852.99   L 143.62 858.94   A 0.43 0.42 88.7 0 1 143.18 858.51   L 143.57 556.73   A 1.79 1.73 30.5 0 0 143.32 555.83   L 127.36 528.99   A 0.38 0.38 0.0 0 0 126.83 528.87   C 109.79 540.20 87.12 536.06 72.95 522.05   C 53.25 502.55 54.59 471.85 72.76 451.82   Q 74.74 449.63 83.09 443.02   A 0.95 0.94 -20.5 0 0 83.45 442.24   Q 83.22 436.47 83.15 433.26   C 82.64 409.69 95.32 390.35 114.51 377.74   Q 131.86 366.34 152.48 370.00   Q 157.88 370.96 163.00 371.81   Q 167.14 372.50 170.54 370.04   Q 176.26 365.90 182.53 361.00   Q 200.39 347.03 222.04 342.02   C 238.47 338.21 257.90 336.44 274.10 342.31   Q 300.56 351.90 304.61 379.21   A 0.74 0.74 0.0 0 0 305.16 379.82   Q 323.56 384.21 332.14 398.85   C 344.86 420.59 334.06 439.74 316.96 454.01   Q 306.63 462.64 294.10 467.66   A 0.37 0.37 0.0 0 0 293.89 468.12   Q 296.15 474.66 297.82 480.36   C 299.51 486.15 303.17 491.84 305.17 497.32   Q 306.15 500.03 305.29 502.32   A 1.42 1.40 46.4 0 0 305.27 503.27   L 350.77 644.27   A 0.23 0.23 0.0 0 0 351.20 644.28   L 425.75 444.08   A 0.81 0.80 9.6 0 1 426.49 443.56   L 578.86 441.57   A 0.56 0.56 0.0 0 1 579.43 442.15   L 558.75 860.45   A 0.36 0.36 0.0 0 1 558.41 860.79   L 428.96 868.18   A 0.25 0.25 0.0 0 1 428.69 867.93   L 426.92 648.60   A 0.20 0.20 0.0 0 0 426.53 648.54   Z   M 207.71 354.67   Q 199.44 357.84 192.59 362.83   Q 182.98 369.83 173.50 376.99   Q 169.56 379.96 164.97 379.13   Q 154.81 377.31 147.86 376.56   Q 145.07 376.23 141.75 376.47   Q 131.26 377.22 123.38 381.40   C 102.60 392.42 86.97 412.43 87.50 436.51   Q 87.57 439.88 87.89 446.78   A 3.55 3.53 69.9 0 1 86.53 449.73   Q 81.48 453.66 79.32 455.56   Q 66.14 467.17 63.81 484.15   Q 59.79 511.30 84.13 523.58   Q 97.90 530.71 113.55 526.65   Q 118.83 525.11 122.70 522.60   A 1.66 1.66 0.0 0 0 121.47 519.58   C 109.16 521.97 93.21 518.19 87.12 506.28   A 0.17 0.17 0.0 0 1 87.36 506.05   C 97.20 511.79 106.37 514.89 117.75 512.60   A 0.50 0.50 0.0 0 0 118.11 511.93   Q 115.99 506.73 119.13 501.62   Q 127.01 488.77 141.02 483.32   A 0.35 0.35 0.0 0 1 141.38 483.90   C 133.50 491.04 125.45 499.47 121.92 509.49   A 1.62 1.60 46.5 0 0 121.90 510.48   Q 122.40 512.14 123.57 513.52   L 143.95 549.50   A 0.43 0.43 0.0 0 0 144.65 549.56   Q 157.78 533.97 175.94 522.64   Q 179.99 520.11 195.78 512.52   Q 221.72 500.05 248.88 496.35   Q 270.55 493.40 295.41 495.35   L 300.16 495.72   A 0.26 0.26 0.0 0 0 300.41 495.34   C 293.52 482.33 286.83 468.59 283.83 454.35   A 1.24 1.23 7.8 0 0 283.18 453.50   C 271.79 447.50 261.39 444.09 248.50 442.48   Q 205.32 437.08 168.69 461.35   A 0.21 0.21 0.0 0 1 168.42 461.02   C 193.10 436.16 228.90 429.46 262.04 438.13   A 1.15 1.14 -52.6 0 0 262.93 438.01   Q 266.54 435.88 267.82 434.81   Q 287.58 418.30 296.61 394.07   A 0.26 0.26 0.0 0 1 297.11 394.13   C 299.38 412.89 285.37 429.31 271.85 441.06   A 0.37 0.37 0.0 0 0 271.94 441.68   L 282.34 446.48   A 1.12 1.10 44.1 0 0 283.29 446.47   Q 294.02 441.49 302.73 433.19   C 310.01 426.25 314.68 416.53 318.10 407.21   A 0.29 0.29 0.0 0 1 318.67 407.31   C 318.85 428.84 307.30 444.18 288.16 452.63   A 0.84 0.83 -17.5 0 0 287.68 453.54   L 289.04 460.49   A 0.68 0.68 0.0 0 0 289.93 461.00   Q 297.56 458.33 304.62 453.83   C 317.26 445.92 332.61 431.32 333.41 415.76   Q 333.96 404.90 325.38 397.03   Q 318.50 390.16 309.19 387.96   Q 306.61 387.34 303.91 386.64   A 2.58 2.57 75.0 0 1 302.72 385.95   Q 300.79 383.97 300.69 381.50   Q 300.23 370.48 294.45 362.47   Q 292.88 360.27 290.37 358.12   Q 283.22 352.01 274.18 349.34   Q 261.12 345.46 247.50 345.81   Q 226.29 346.35 207.71 354.67   Z"/>
<path d="   M 205.65 431.78   A 0.29 0.29 0.0 0 1 205.09 431.78   Q 204.01 427.61 202.65 422.57   Q 196.96 401.60 181.09 386.26   A 0.21 0.21 0.0 0 1 181.34 385.93   C 197.78 395.15 210.73 411.89 205.65 431.78   Z"/>
<path d="   M 1089.57 486.26   C 1104.66 469.09 1119.74 455.61 1139.97 447.69   Q 1157.22 440.94 1174.64 441.24   C 1192.25 441.54 1208.64 444.83 1224.22 453.47   C 1248.63 467.00 1264.23 489.50 1274.28 515.49   C 1285.12 543.50 1290.35 573.20 1293.00 603.51   C 1295.85 636.21 1295.75 662.97 1295.61 701.87   Q 1295.37 773.09 1291.99 841.04   A 0.39 0.39 0.0 0 1 1291.59 841.41   L 1128.06 837.69   A 0.40 0.40 0.0 0 1 1127.67 837.22   C 1134.45 798.51 1140.91 756.85 1144.73 722.50   Q 1148.90 685.00 1149.68 647.47   C 1150.17 624.18 1149.06 602.53 1145.78 579.76   C 1144.21 568.84 1140.98 554.84 1133.99 545.82   C 1128.42 538.63 1115.64 542.86 1109.93 547.68   C 1098.66 557.19 1093.18 573.28 1090.38 587.71   C 1086.38 608.36 1085.77 624.57 1084.99 650.53   C 1083.02 716.01 1081.73 778.94 1079.67 842.25   A 0.34 0.34 0.0 0 1 1079.34 842.58   L 934.44 848.03   A 0.33 0.33 0.0 0 1 934.10 847.68   C 942.38 713.96 950.71 581.39 955.64 447.83   A 0.36 0.36 0.0 0 1 955.99 447.48   L 1089.82 441.40   A 0.36 0.36 0.0 0 1 1090.20 441.77   L 1089.19 486.12   A 0.22 0.21 -24.4 0 0 1089.57 486.26   Z"/>
<path d="   M 885.18 703.03   A 0.16 0.15 -13.9 0 1 885.42 703.17   L 872.26 831.77   A 1.72 1.71 -15.0 0 1 871.56 832.98   Q 849.10 849.31 821.41 856.68   C 784.97 866.39 742.47 867.59 707.26 854.42   C 624.32 823.37 591.22 733.43 594.55 651.07   C 596.99 590.65 618.04 527.64 663.23 485.99   C 686.92 464.16 716.40 450.21 748.36 445.75   C 770.34 442.68 794.19 443.25 815.52 449.38   C 890.55 470.92 920.06 546.96 922.14 618.25   Q 922.96 646.47 919.08 675.43   A 0.48 0.48 0.0 0 1 918.63 675.84   Q 877.46 678.30 832.74 684.76   Q 744.87 697.45 725.97 700.41   A 0.21 0.21 0.0 0 0 725.80 700.69   C 731.53 716.72 742.81 731.04 757.88 738.71   C 773.81 746.81 792.05 746.83 809.40 741.63   C 832.11 734.82 853.77 723.39 874.11 710.10   Q 879.12 706.83 885.18 703.03   Z   M 724.41 626.14   L 807.41 617.99   A 0.69 0.69 0.0 0 0 808.04 617.35   C 809.13 600.40 805.01 577.46 789.26 567.96   C 780.90 562.91 768.02 563.47 759.40 567.88   C 738.72 578.44 728.78 604.29 723.84 625.49   A 0.53 0.53 0.0 0 0 724.41 626.14   Z"/>
<path d="   M 149.99 469.00   Q 148.60 470.13 145.59 470.89   C 124.44 476.20 106.11 465.74 94.68 448.37   A 0.23 0.23 0.0 0 1 95.00 448.06   C 106.68 456.36 117.31 463.39 130.71 465.82   Q 142.50 467.95 149.86 468.56   A 0.25 0.25 0.0 0 1 149.99 469.00   Z"/>
<path d="   M 335.11 974.42   C 350.42 955.88 367.86 944.00 393.08 945.50   C 436.86 948.10 454.31 988.97 460.57 1027.20   Q 464.78 1052.92 465.63 1080.55   Q 467.33 1135.72 466.23 1191.63   A 0.48 0.48 0.0 0 1 465.75 1192.10   L 364.38 1192.10   A 0.18 0.18 0.0 0 1 364.20 1191.89   Q 367.97 1165.14 371.03 1139.00   Q 375.03 1104.75 374.75 1070.76   Q 374.58 1050.14 370.97 1030.29   Q 369.12 1020.07 364.82 1012.74   Q 361.89 1007.75 356.21 1008.89   C 348.91 1010.34 344.04 1016.05 341.41 1022.48   C 335.04 1038.07 334.58 1056.18 334.61 1073.25   Q 334.63 1079.52 334.43 1195.41   A 0.63 0.62 88.6 0 1 333.84 1196.04   L 244.34 1201.68   A 0.30 0.30 0.0 0 1 244.02 1201.37   Q 247.50 1111.32 249.62 1034.50   Q 250.88 989.10 251.13 953.11   A 0.45 0.45 0.0 0 1 251.55 952.67   L 334.28 946.80   A 0.33 0.32 -1.7 0 1 334.63 947.12   L 334.63 974.25   A 0.27 0.27 0.0 0 0 335.11 974.42   Z"/>
<path d="   M 1552.22 1353.91   A 0.29 0.29 0.0 0 1 1552.02 1354.34   L 1418.85 1380.37   A 0.54 0.54 0.0 0 1 1418.24 1380.03   L 1372.64 1253.88   A 0.56 0.55 78.6 0 0 1372.09 1253.51   L 1336.14 1254.86   A 0.58 0.58 0.0 0 0 1335.58 1255.42   L 1330.26 1378.31   A 0.38 0.38 0.0 0 1 1329.88 1378.68   L 1202.51 1378.68   A 0.31 0.31 0.0 0 1 1202.20 1378.36   C 1204.04 1293.45 1205.43 1219.25 1207.58 1129.92   Q 1208.67 1084.77 1209.62 1027.75   Q 1210.06 1001.15 1211.69 972.76   A 0.48 0.47 -8.9 0 1 1212.00 972.35   Q 1263.05 953.39 1317.76 949.09   Q 1353.64 946.28 1385.25 947.03   C 1419.34 947.85 1454.18 956.26 1483.67 973.56   C 1520.37 995.09 1546.72 1031.36 1552.08 1073.70   Q 1555.45 1100.41 1551.54 1127.32   Q 1548.08 1151.07 1539.22 1168.77   C 1526.57 1194.04 1505.85 1212.77 1482.01 1227.65   A 0.60 0.60 0.0 0 0 1481.80 1228.45   L 1552.22 1353.91   Z   M 1339.43 1162.33   C 1358.77 1163.33 1379.61 1159.68 1396.10 1149.10   C 1407.32 1141.90 1416.96 1129.90 1419.16 1116.69   C 1422.25 1098.13 1418.16 1075.84 1404.50 1062.68   C 1388.54 1047.32 1365.68 1046.24 1344.54 1051.50   A 0.82 0.80 -5.9 0 0 1343.93 1052.24   L 1339.19 1162.06   A 0.25 0.25 0.0 0 0 1339.43 1162.33   Z"/>
<path d="   M 1017.04 960.24   A 0.26 0.25 -87.1 0 1 1017.30 960.53   Q 1017.26 960.82 991.74 1145.34   Q 989.31 1162.97 986.75 1174.49   Q 984.17 1186.10 977.44 1217.99   A 0.37 0.37 0.0 0 0 977.80 1218.43   L 1009.53 1218.43   A 0.43 0.43 0.0 0 1 1009.96 1218.86   L 1009.96 1309.15   A 0.45 0.45 0.0 0 1 1009.51 1309.60   L 965.37 1309.60   A 0.68 0.67 6.4 0 0 964.71 1310.12   L 950.04 1376.41   A 0.53 0.52 -80.9 0 1 949.47 1376.83   L 798.45 1362.02   A 0.32 0.32 0.0 0 1 798.17 1361.61   L 916.43 965.83   A 0.78 0.78 0.0 0 1 917.13 965.28   L 1017.04 960.24   Z"/>
<path d="   M 656.03 1138.01   L 656.75 1127.57   A 0.36 0.36 0.0 0 0 656.42 1127.18   L 623.61 1124.88   A 0.36 0.36 0.0 0 1 623.28 1124.49   L 625.59 1091.63   A 0.36 0.36 0.0 0 1 625.98 1091.30   L 658.82 1093.61   A 0.36 0.36 0.0 0 1 659.15 1094.00   L 657.63 1115.65   A 0.36 0.36 0.0 0 0 657.96 1116.04   L 679.57 1117.55   A 0.36 0.36 0.0 0 0 679.96 1117.22   L 681.48 1095.60   A 0.36 0.36 0.0 0 1 681.87 1095.27   L 714.64 1097.57   A 0.36 0.36 0.0 0 1 714.97 1097.96   L 713.46 1119.61   A 0.36 0.36 0.0 0 1 713.07 1119.94   L 680.31 1117.64   A 0.36 0.36 0.0 0 0 679.92 1117.97   L 678.41 1139.62   A 0.36 0.36 0.0 0 1 678.02 1139.95   L 667.55 1139.22   A 0.36 0.36 0.0 0 0 667.16 1139.55   L 665.65 1161.19   A 0.36 0.36 0.0 0 1 665.26 1161.52   L 643.62 1160.00   A 0.36 0.36 0.0 0 0 643.23 1160.33   L 641.72 1181.88   A 0.36 0.36 0.0 0 1 641.33 1182.21   L 619.67 1180.70   A 0.36 0.36 0.0 0 1 619.34 1180.31   L 621.64 1147.54   A 0.36 0.36 0.0 0 1 622.03 1147.21   L 643.67 1148.72   A 0.36 0.36 0.0 0 0 644.06 1148.39   L 644.79 1137.94   A 0.36 0.36 0.0 0 1 645.18 1137.61   L 655.64 1138.34   A 0.36 0.36 0.0 0 0 656.03 1138.01   Z"/>
<path d="   M 707.92 1186.10   Q 707.12 1186.80 706.49 1186.76   Q 694.11 1186.04 664.64 1183.84   A 0.63 0.62 4.2 0 1 664.06 1183.18   L 665.54 1162.16   A 0.60 0.60 0.0 0 1 666.17 1161.60   Q 672.18 1161.88 686.75 1163.04   Q 687.65 1163.11 687.83 1162.95   Q 688.01 1162.80 688.07 1161.89   Q 688.97 1147.31 689.54 1141.32   A 0.60 0.60 0.0 0 1 690.18 1140.77   L 711.20 1142.26   A 0.63 0.62 -86.1 0 1 711.77 1142.93   Q 709.81 1172.42 708.78 1184.77   Q 708.73 1185.40 707.92 1186.10   Z"/>
<path d="   M 496.87 1298.03   L 495.53 1257.53   Q 501.05 1258.39 505.03 1253.77   Q 525.36 1230.18 556.72 1226.93   Q 568.19 1225.75 577.50 1225.59   Q 624.74 1224.81 667.99 1224.46   Q 673.21 1224.42 674.95 1225.06   C 682.17 1227.70 685.22 1238.58 677.06 1242.36   Q 675.58 1243.05 671.34 1243.20   Q 580.38 1246.42 567.55 1246.86   Q 563.21 1247.01 561.22 1248.03   C 552.78 1252.35 554.60 1266.13 565.00 1266.02   Q 616.70 1265.47 671.49 1262.39   C 678.33 1262.00 685.93 1264.87 685.06 1273.28   C 684.38 1279.85 677.73 1281.88 672.01 1281.96   Q 615.55 1282.70 564.75 1285.34   Q 562.63 1285.45 560.26 1287.30   C 554.71 1291.61 556.99 1300.97 563.01 1303.54   Q 565.06 1304.42 569.60 1304.28   Q 610.16 1303.05 675.72 1301.13   C 683.46 1300.90 686.46 1309.26 682.63 1315.15   Q 679.90 1319.35 674.39 1319.84   Q 665.74 1320.60 580.26 1324.90   C 562.55 1325.79 545.55 1325.10 529.40 1317.85   Q 518.51 1312.96 506.15 1301.09   Q 502.39 1297.48 496.87 1298.03   Z"/>
<path d="   M 1140.36 1226.98   Q 1140.66 1226.92 1140.81 1227.49   Q 1164.92 1317.62 1177.03 1360.17   Q 1179.56 1369.06 1179.46 1372.59   C 1179.21 1381.95 1173.68 1390.27 1165.05 1394.22   Q 1160.16 1396.47 1153.99 1397.37   C 1145.25 1398.64 1136.45 1393.73 1132.03 1386.27   Q 1129.92 1382.72 1128.05 1372.41   Q 1127.02 1366.72 1102.17 1241.62   Q 1101.80 1239.75 1099.33 1237.27   L 1140.36 1226.98   Z"/>
</g>
<g fill="#1fa8ff">
<path d="   M 207.71 354.67   Q 191.94 364.59 178.62 376.61   Q 174.72 380.13 170.79 381.99   C 165.51 384.50 161.20 382.53 155.39 380.09   Q 151.66 378.52 147.86 376.56   Q 154.81 377.31 164.97 379.13   Q 169.56 379.96 173.50 376.99   Q 182.98 369.83 192.59 362.83   Q 199.44 357.84 207.71 354.67   Z"/>
<path d="   M 325.38 397.03   Q 316.81 394.29 314.52 393.95   C 307.77 392.92 301.08 393.55 298.98 385.27   C 298.03 381.50 297.98 376.95 296.98 372.44   Q 295.90 367.61 294.45 362.47   Q 300.23 370.48 300.69 381.50   Q 300.79 383.97 302.72 385.95   A 2.58 2.57 75.0 0 0 303.91 386.64   Q 306.61 387.34 309.19 387.96   Q 318.50 390.16 325.38 397.03   Z"/>
<path d="   M 304.62 453.83   Q 297.56 458.33 289.93 461.00   A 0.68 0.68 0.0 0 1 289.04 460.49   L 287.68 453.54   A 0.84 0.83 -17.5 0 1 288.16 452.63   C 307.30 444.18 318.85 428.84 318.67 407.31   A 0.29 0.29 0.0 0 0 318.10 407.21   C 314.68 416.53 310.01 426.25 302.73 433.19   Q 294.02 441.49 283.29 446.47   A 1.12 1.10 44.1 0 1 282.34 446.48   L 271.94 441.68   A 0.37 0.37 0.0 0 1 271.85 441.06   C 285.37 429.31 299.38 412.89 297.11 394.13   A 0.26 0.26 0.0 0 0 296.61 394.07   Q 287.58 418.30 267.82 434.81   Q 266.54 435.88 262.93 438.01   A 1.15 1.14 -52.6 0 1 262.04 438.13   C 228.90 429.46 193.10 436.16 168.42 461.02   A 0.21 0.21 0.0 0 0 168.69 461.35   Q 205.32 437.08 248.50 442.48   C 261.39 444.09 271.79 447.50 283.18 453.50   A 1.24 1.23 7.8 0 1 283.83 454.35   C 286.83 468.59 293.52 482.33 300.41 495.34   A 0.26 0.26 0.0 0 1 300.16 495.72   L 295.41 495.35   Q 288.76 486.74 283.36 478.14   Q 276.53 467.25 272.91 455.00   A 1.04 1.04 0.0 0 0 272.30 454.32   C 257.84 448.34 240.58 446.84 224.61 446.91   C 201.92 447.01 180.03 455.73 161.74 468.88   A 0.29 0.29 0.0 0 1 161.32 468.50   C 170.51 453.18 185.00 442.14 200.97 434.53   A 0.73 0.72 -16.8 0 0 201.38 433.78   C 198.76 413.95 186.48 397.30 174.35 382.05   A 0.34 0.34 0.0 0 1 174.67 381.51   C 191.48 384.37 204.61 395.22 208.85 411.81   Q 211.51 422.18 209.62 431.98   A 0.29 0.29 0.0 0 0 209.94 432.32   C 227.27 429.86 246.63 428.92 263.32 432.81   A 1.01 1.00 29.6 0 0 264.21 432.57   Q 285.30 413.43 296.85 387.50   A 0.32 0.32 0.0 0 1 297.45 387.54   C 302.91 406.33 296.37 425.71 283.07 439.53   A 0.65 0.64 -56.2 0 0 283.27 440.56   L 285.36 441.53   A 1.15 1.13 -48.4 0 0 286.43 441.46   Q 309.67 426.87 318.10 400.64   A 0.37 0.36 -49.9 0 1 318.77 400.58   C 327.27 416.24 318.06 438.49 307.52 450.27   Q 305.19 452.87 304.62 453.83   Z   M 205.65 431.78   C 210.73 411.89 197.78 395.15 181.34 385.93   A 0.21 0.21 0.0 0 0 181.09 386.26   Q 196.96 401.60 202.65 422.57   Q 204.01 427.61 205.09 431.78   A 0.29 0.29 0.0 0 0 205.65 431.78   Z"/>
<path d="   M 154.42 466.93   A 0.23 0.22 -64.7 0 1 154.55 467.31   C 150.11 472.02 144.94 475.21 138.22 475.87   Q 122.78 477.40 110.63 468.72   C 102.14 462.65 93.64 453.34 91.25 443.26   A 0.29 0.29 0.0 0 1 91.73 442.97   C 108.74 458.04 132.07 464.38 154.42 466.93   Z   M 149.86 468.56   Q 142.50 467.95 130.71 465.82   C 117.31 463.39 106.68 456.36 95.00 448.06   A 0.23 0.23 0.0 0 0 94.68 448.37   C 106.11 465.74 124.44 476.20 145.59 470.89   Q 148.60 470.13 149.99 469.00   A 0.25 0.25 0.0 0 0 149.86 468.56   Z"/>
<path d="   M 1509.09 825.48   C 1494.10 840.86 1473.35 847.57 1452.19 848.19   Q 1422.08 849.06 1396.43 833.79   C 1347.69 804.79 1317.79 740.49 1318.46 684.75   C 1319.05 635.18 1322.38 585.96 1329.87 535.39   Q 1334.62 503.30 1343.02 470.48   A 0.68 0.67 -80.8 0 1 1343.72 469.97   C 1392.32 473.04 1435.64 476.06 1482.44 475.92   A 0.44 0.43 8.0 0 1 1482.86 476.47   C 1467.19 532.32 1451.58 587.23 1445.93 644.22   Q 1443.37 670.04 1444.44 694.50   C 1445.02 707.92 1447.11 721.69 1452.90 733.35   Q 1459.39 746.39 1473.73 743.46   C 1487.59 740.63 1497.80 723.12 1503.07 710.74   Q 1511.14 691.77 1515.99 670.48   C 1524.30 634.00 1529.23 597.07 1532.05 559.50   Q 1535.72 510.79 1535.98 479.53   Q 1536.06 470.56 1535.17 460.60   A 0.41 0.40 88.7 0 1 1535.59 460.16   Q 1579.01 462.04 1622.75 462.57   Q 1644.03 462.82 1666.09 462.10   A 0.30 0.30 0.0 0 1 1666.39 462.44   C 1657.78 522.09 1649.74 586.13 1643.15 647.08   Q 1632.05 749.81 1621.29 861.26   A 0.43 0.42 1.6 0 1 1620.89 861.63   L 1504.56 868.28   A 0.35 0.35 0.0 0 1 1504.19 867.89   L 1509.77 825.81   A 0.40 0.40 0.0 0 0 1509.09 825.48   Z"/>
<path d="   M 123.57 513.52   Q 122.40 512.14 121.90 510.48   A 1.62 1.60 46.5 0 1 121.92 509.49   C 125.45 499.47 133.50 491.04 141.38 483.90   A 0.35 0.35 0.0 0 0 141.02 483.32   Q 127.01 488.77 119.13 501.62   Q 115.99 506.73 118.11 511.93   A 0.50 0.50 0.0 0 1 117.75 512.60   C 106.37 514.89 97.20 511.79 87.36 506.05   A 0.17 0.17 0.0 0 0 87.12 506.28   C 93.21 518.19 109.16 521.97 121.47 519.58   A 1.66 1.66 0.0 0 1 122.70 522.60   Q 118.83 525.11 113.55 526.65   Q 110.08 525.97 106.76 525.48   C 90.35 523.08 84.34 512.09 78.71 498.14   A 0.15 0.15 0.0 0 1 78.94 497.96   Q 93.25 508.55 111.16 506.07   A 2.31 2.29 -78.3 0 0 112.82 504.97   C 121.17 490.84 133.21 482.85 148.86 478.33   A 0.18 0.18 0.0 0 1 149.03 478.64   Q 137.05 489.44 128.77 502.66   C 126.72 505.94 125.09 509.82 123.57 513.52   Z"/>
<path d="   M 84.13 523.58   Q 59.79 511.30 63.81 484.15   Q 65.86 507.95 84.13 523.58   Z"/>
<path d="   M 1140.36 1226.98   L 1099.33 1237.27   Q 1095.52 1234.60 1089.26 1235.33   Q 1084.28 1235.92 1078.16 1234.58   Q 1067.82 1232.33 1064.74 1222.00   Q 1058.60 1201.34 1055.79 1180.80   Q 1047.00 1116.55 1040.75 1079.06   Q 1037.27 1058.20 1036.13 1044.32   Q 1033.84 1016.49 1033.07 998.26   Q 1032.46 983.63 1036.84 969.38   C 1040.49 957.51 1052.13 953.67 1063.59 954.60   C 1068.27 954.98 1074.64 969.52 1076.38 973.86   Q 1078.22 978.46 1081.31 991.48   Q 1109.30 1109.35 1140.36 1226.98   Z"/>
<path d="   M 604.74 1067.23   Q 604.63 1067.33 604.51 1067.32   Q 535.67 1062.47 515.80 1061.04   A 0.31 0.31 0.0 0 1 515.51 1060.71   Q 517.50 1032.18 520.96 983.77   Q 521.31 978.96 525.19 975.59   Q 529.07 972.22 533.89 972.55   Q 582.30 975.92 610.83 977.96   A 0.31 0.31 0.0 0 1 611.11 978.29   Q 609.74 998.17 604.87 1067.00   Q 604.86 1067.13 604.74 1067.23   Z   M 575.2275 1009.4676   A 0.38 0.38 0.0 0 0 574.8749 1009.0620   L 553.2876 1007.5525   A 0.38 0.38 0.0 0 0 552.8820 1007.9051   L 551.3725 1029.4924   A 0.38 0.38 0.0 0 0 551.7251 1029.8980   L 573.3124 1031.4075   A 0.38 0.38 0.0 0 0 573.7180 1031.0549   L 575.2275 1009.4676   Z"/>
<path d="   M 718.95 989.27   Q 722.32 993.15 721.99 997.97   Q 718.62 1046.38 716.58 1074.91   A 0.31 0.31 0.0 0 1 716.25 1075.19   Q 696.37 1073.82 627.54 1068.95   Q 627.42 1068.94 627.32 1068.83   Q 627.22 1068.71 627.23 1068.59   Q 632.07 999.75 633.50 979.88   A 0.31 0.31 0.0 0 1 633.83 979.59   Q 662.36 981.58 710.77 985.04   Q 715.58 985.39 718.95 989.27   Z   M 686.9875 1017.3683   A 0.39 0.39 0.0 0 0 686.6256 1016.9521   L 665.0383 1015.4425   A 0.39 0.39 0.0 0 0 664.6221 1015.8044   L 663.1125 1037.3917   A 0.39 0.39 0.0 0 0 663.4744 1037.8079   L 685.0617 1039.3175   A 0.39 0.39 0.0 0 0 685.4779 1038.9556   L 686.9875 1017.3683   Z"/>
<path d="   M 511.51 1169.35   Q 508.14 1165.47 508.47 1160.65   Q 511.84 1112.24 513.88 1083.71   A 0.31 0.31 0.0 0 1 514.21 1083.42   Q 534.09 1084.80 602.93 1089.66   Q 603.05 1089.67 603.15 1089.79   Q 603.25 1089.90 603.24 1090.02   Q 598.40 1158.86 596.97 1178.74   A 0.31 0.31 0.0 0 1 596.64 1179.03   Q 568.11 1177.04 519.69 1173.58   Q 514.88 1173.24 511.51 1169.35   Z   M 567.3389 1121.1984   A 0.37 0.37 0.0 0 0 566.9956 1120.8035   L 545.3684 1119.2911   A 0.37 0.37 0.0 0 0 544.9735 1119.6344   L 543.4611 1141.2616   A 0.37 0.37 0.0 0 0 543.8044 1141.6565   L 565.4316 1143.1689   A 0.37 0.37 0.0 0 0 565.8265 1142.8256   L 567.3389 1121.1984   Z"/>
<path d="   M 495.53 1257.53   L 496.87 1298.03   Q 399.81 1302.84 302.99 1308.31   Q 289.02 1309.10 284.72 1307.84   C 263.56 1301.64 262.71 1268.65 284.09 1261.29   Q 287.63 1260.07 299.08 1259.96   Q 397.34 1259.05 495.53 1257.53   Z"/>
</g>
</svg>