<svg xmlns="http://www.w3.org/2000/svg" id="Layer_1" version="1.1" viewBox="149.43 135.74 1457.94 1482.7">
  <!-- Generator: Adobe Illustrator 30.4.0, SVG Export Plug-In . SVG Version: 2.1.4 Build 226)  -->
  <defs>
    <style>
      .st0 {
        fill: #0cc0df;
      }

      .st1 {
        fill: #fff;
      }
    </style>
  </defs>
  <path class="st1" d="M809.52,203.22c3.14,10.33,5.73,20.76,7.78,31.28.71,3.65,1.34,7.89,1.89,12.71,1.94,17.25,3.59,36.02,23.85,40.26,3.12.66,5.99,1.38,8.6,1.65,9.43,1.01,15.14,1.79,17.12,2.34,8.77,2.45,17.79,5.02,27.08,7.69,1.81,1.77,3.82,3.86,6.01,6.25,26.93,29.42,18.05,68.16-3.11,97.36-15.98,22.05-36.74,40.28-59.19,54.8-.2.13-.43.18-.7.16-.09-.3-.02-.59.23-.88,6.42-7.5,10.88-12.88,13.38-16.13,26.35-34.28,47.41-89.69,25.18-131.23-.29-.53-.95-.73-1.47-.44-.25.13-.43.36-.52.62-15.56,48.48-44.87,86.39-87.92,113.74-1.04.66-1.76.97-2.15.92-2.31-.28-5.02-1.85-7.35-2.97-.96-.46-1.36-1.61-.9-2.57.09-.18.21-.35.35-.5,30.8-32.05,48.6-74.57,45.08-119.23-.73-9.3-2.34-17.99-4.81-26.08-.15-.47-.65-.73-1.12-.58-.13.04-.25.11-.34.2-.24.23-.43.5-.58.83-22,48.69-52.49,90.61-91.48,125.74-.48.43-1.14.61-1.77.47-20.29-4.42-40.84-6.82-61.67-7.21-29.2-.55-58.54,1.44-88.01,5.95-.44.07-.85-.23-.91-.67-.01-.09-.01-.18,0-.26,5.63-31.92-.36-66.03-18.44-92.58-18.23-26.76-47.78-43.79-79.51-48.71-.43-.07-.84.22-.91.65-.03.16,0,.32.07.47.18.38.43.78.76,1.19,22.7,28.43,42.28,54.96,57.26,86.22,8.89,18.53,14.77,37.75,17.65,57.64.13.87-.33,1.72-1.12,2.1-16.43,7.83-31.85,16.79-46.27,26.88-24.07,16.85-44.02,36.97-59.85,60.37-2.67,3.95-4.31,6.59-4.94,7.94-.18.37-.01.82.37,1,.11.05.23.08.35.07.29-.01.57-.12.86-.32,51.73-37.02,112.07-60.64,175.62-61.26,37.49-.37,76.24,2.72,111.78,13.2,7.99,2.36,15.29,4.9,21.88,7.62.8.33,1.4,1,1.64,1.83,5.03,17.13,11.9,33.78,20.6,49.95,4.33,8.04,9.89,17.13,16.68,27.27,8.61,12.85,17.18,24.77,25.73,35.77-50.28-3.98-100.67-2.9-149.65,5.95-38.85,7.03-75.9,18.32-111.13,33.87-17.92,7.91-36.51,16.81-55.78,26.7-11.33,5.81-21.89,12.08-31.66,18.8-22.92,15.77-43.22,33.06-60.9,51.88-4.58,4.88-10.05,11.23-13.11,14.63-.43.48-1.16.52-1.64.08-.09-.08-.17-.18-.24-.29l-57.02-100.75c4.71-12.45,9.51-22.55,14.4-30.29,15.84-25.07,34.8-47.54,56.87-67.41.18-.17.19-.47.02-.65-.11-.12-.29-.17-.45-.13-14.92,4.07-28.92,9.7-41.99,16.91-24.79,13.66-44.56,32.98-58.82,57.39-1.11,1.91-2.92,3.03-5.42,3.36-33.03,4.35-62.77-3.19-89.24-22.62-.25-.18-.6-.1-.78.17-.03.04-.05.08-.07.13-.07.17-.03.43.11.77,12.87,31.5,27.29,60.78,62.03,72.27,2.8.93,8.5,2.13,17.11,3.62,5.67.99,11.4,2.12,17.2,3.39-29.04,7.36-56.16,4.42-81.36-8.83-28.49-24.08-46.49-54.03-54.02-89.84-.53-2.53-1.07-5.79-1.63-9.78-.44-3.19-.9-6.46-1.38-9.82l5.93-26.29s.02-.03.03-.03.03.02.03.03h0c.01.11.04.19.07.26.02.05.07.07.12.05.03-.01.05-.03.05-.06,2.03-5.91,3.89-10.56,5.58-13.95,8.07-16.13,19.1-30.18,33.09-42.15,4.83-4.13,11.18-9.27,19.05-15.42,2.18-1.71,3.35-4.34,3.51-7.91.09-2.01-.21-8.99-.9-20.95-1.89-32.54,5.48-62.53,22.12-89.98,19.41-32.03,48.8-57.51,82.32-74.22,3.71-1.85,8-3.57,12.86-5.16,16.9-5.53,34.37-7.65,52.41-6.36-.56.16-1.1.24-1.61.25-.79.02-.76.05.07.08.66.03,1.08.08,1.27.17,15.86,7.54,27.74,12.69,35.64,15.46,8.19,2.87,17.54,3.73,26.07.1,6.25-2.65,12.48-6.59,18.7-11.82,6.35-5.33,12.77-10.74,19.24-16.21,20.95-17.73,43.1-34.01,66.47-48.85,37.03-16.39,75.99-24.79,116.9-25.18,25.21-.25,49.7,3.41,73.47,10.96,19.83,6.3,38.5,18.04,51.9,33.78.74.87,1.21,1.65,1.4,2.36ZM417.35,494.97c-30.89-3.11-60.62-9.41-89.19-18.9-31.91-10.6-61.29-26.11-86.1-47.98-.34-.3-.86-.27-1.16.08-.07.08-.13.18-.16.28-.04.11-.03.3.02.55,2.14,10.74,8.22,22.53,15.07,32.31,9.63,13.76,21.59,25.93,35.89,36.51,12.99,9.62,26.28,16.12,39.85,19.5,14.68,3.65,29.49,4.43,44.42,2.34,16.39-2.3,30.89-11.37,41.84-23.45.28-.3.25-.77-.05-1.05-.12-.11-.27-.17-.43-.19Z"/>
  <g>
    <path d="M750.6,1062.46c-.17-.02-.32.11-.34.28,0,.01,0,.02,0,.03l4.13,512.53c0,.33-.25.6-.58.62l-366.24,16.51c-.79.04-1.47-.57-1.51-1.37,0-.02,0-.05,0-.07l1.03-844.31c0-.96-.26-1.91-.75-2.73l-44.45-74.82c-.38-.64-1.2-.84-1.84-.46-.02.01-.04.02-.05.03-34.89,23.07-79.33,23.35-116.18,5.2-41.37-20.37-69.28-60.92-73.72-106.91-3.79-39.34,8.7-77.46,33.68-108.19,3.69-4.54,6.94-8.05,9.74-10.52,7.91-7,15.95-13.63,24.11-19.89.76-.58,1.19-1.5,1.15-2.45-.36-10.11-1.31-26.14-.75-37.24,3.01-59.63,36.44-108.09,84.73-141.15,27.79-19.03,57.87-27.69,90.26-25.98,6.57.35,14.67,1.4,24.32,3.16,11.01,2.01,19.07,3.39,24.17,4.14,8.13,1.19,15.44-.62,21.92-5.45,11.81-8.8,23.44-17.59,34.87-26.37,32.58-25,68.88-42.21,108.9-51.62,31.35-7.37,63.54-11.12,95.05-9.18,25.74,1.58,51.37,8.1,74.14,20.92,35.73,20.11,55.09,51.41,61.47,92.11.17,1.06.96,1.91,1.99,2.15,8.77,2.08,17.17,4.91,25.19,8.5,21.11,9.45,37.6,24.05,49.46,43.8,16.23,27.02,21.07,57.18,10.03,87.32-8.31,22.67-23.58,41.74-41.03,58.22-21.79,20.59-46.76,36.57-74.91,47.94-.52.21-.78.79-.6,1.32,4.01,11.78,8.05,24.39,12.14,37.83,1.23,4.03,3.59,9.68,7.09,16.93,4.39,9.09,7.57,15.82,9.54,20.19,3.27,7.26,5.63,13.73,3.08,20.92-.3.85-.31,1.77-.03,2.62l127.42,394.51c.11.33.46.51.79.4.18-.06.32-.2.39-.38,2.74-7.38,72.22-193.95,208.45-559.72.9-2.43,2.51-2.04,5.17-2.08,193.53-2.55,334.81-4.4,423.85-5.56.81-.01,1.48.64,1.49,1.45,0,.03,0,.06,0,.09l-57.88,1170.79c-.03.68-.57,1.21-1.24,1.25l-362.07,20.67c-.44.03-.81-.3-.84-.74,0-.01,0-.03,0-.04l-4.95-613.94c0-.27-.22-.49-.49-.49-.11,0-.22.04-.31.11-.15.13-.29.33-.41.6-.06.14-52.19,165.29-156.38,495.46-.26.83-1.04,1.41-1.92,1.42-44.99.59-90.45,1.19-136.39,1.78-1.93.03-3.12-.7-3.56-2.18-85.99-290.07-129.28-435.86-129.87-437.37-.01-.03-.03-.11-.04-.22-.02-.22-.16-.35-.42-.38ZM565.85,181.3c-15.03,5.57-28.97,13.06-41.82,22.47-14.43,10.57-31.84,23.49-52.25,38.76-5.17,3.87-10.62,6.18-16.33,6.92-2.75.35-7.5-.07-14.25-1.26-13.69-2.41-27.43-4.44-41.2-6.07-18.04-1.29-35.51.83-52.41,6.36-4.86,1.59-9.15,3.31-12.86,5.16-33.52,16.71-62.91,42.19-82.32,74.22-16.64,27.45-24.01,57.44-22.12,89.98.69,11.96.99,18.94.9,20.95-.16,3.57-1.33,6.2-3.51,7.91-7.87,6.15-14.22,11.29-19.05,15.42-13.99,11.97-25.02,26.02-33.09,42.15-1.69,3.39-3.55,8.04-5.58,13.95-.01.05-.06.08-.11.06-.03,0-.05-.03-.06-.05-.03-.07-.06-.15-.07-.26,0-.02,0-.03-.03-.03s-.03,0-.03.03h0l-5.93,26.29c-1.69,10.43-2.03,20.93-1,31.5,2.92,29.94,18.49,52.91,43.03,69.5,5.13,3.47,10.13,6.28,15,8.44,25.2,13.25,52.32,16.19,81.36,8.83,8.67-2.12,17.05-5.63,25.13-10.54,1.89-1.15,3.02-2.17,3.4-3.06,1.35-3.2-1.51-7.23-5.13-6.54-34.26,6.51-79-3.31-96.25-37.09-.09-.16-.03-.36.13-.45.1-.06.23-.05.33,0,7.48,4.31,14.63,7.98,21.44,10.99,13.89,6.16,28.26,9.35,43.11,9.56,6.55.1,13.36-.97,20.68-2.23.76-.13,1.26-.85,1.13-1.59-.02-.09-.04-.17-.07-.26-5.74-14.99-.3-25.43,9.17-38.33,13.64-18.59,31.49-32.34,53.55-41.27.69-.28,1.26-.42,1.69-.42.43,0,.77.36.77.79,0,.22-.1.42-.26.57-10.93,9.63-20.91,19.74-29.92,30.34-10.42,12.26-19.22,26.01-24.52,41.02-.31.86-.36,1.79-.15,2.68.76,3.3,2.36,6.27,4.8,8.91l57.02,100.75c.32.56,1.03.76,1.59.44.11-.06.21-.14.29-.23,3.06-3.4,8.53-9.75,13.11-14.63,17.68-18.82,37.98-36.11,60.9-51.88,9.77-6.72,20.33-12.99,31.66-18.8,19.27-9.89,37.86-18.79,55.78-26.7,35.23-15.55,72.28-26.84,111.13-33.87,48.98-8.85,99.37-9.93,149.65-5.95l13.21,1.09c.46.04.86-.3.9-.76.01-.16-.02-.32-.1-.46-19.43-36.27-37.39-73.97-46.34-114.55-.24-1.09-.95-2.02-1.93-2.55-26.09-14.04-53.19-23.59-82.82-28.84-10.99-1.95-25.2-3.51-42.62-4.68-.93-.06-1.95-.1-3.06-.13-21.94-.47-42.1.59-61.9,3.78-46.59,7.51-89.92,24.74-129.99,51.71-.27.18-.64.11-.82-.15-.04-.06-.07-.12-.08-.19,0-.01.03-.11.1-.3.03-.09.08-.18.15-.25,43.53-44.48,103.88-69.59,166.05-73.34,32.23-1.95,64.11,1.24,95.64,9.55.75.2,1.56.11,2.26-.24,5.64-2.84,10.81-6.25,15.5-10.24,36.3-30.79,62.72-68.46,79.26-113.01.11-.31.45-.46.76-.35.21.08.36.27.38.49.43,3.77.63,7.76.62,11.97-.17,47.94-37.07,89.74-71.25,119.23-.53.45-.59,1.25-.13,1.78.12.14.27.25.43.33l29.48,13.6c.6.28,1.29.28,1.89,0,19.8-9.21,37.72-21.33,53.77-36.35,8.1-7.59,15.17-16.18,21.2-25.79,9.42-15,17.06-31.04,22.92-48.12.11-.33.47-.5.8-.39.16.06.3.18.37.34.07.16.12.46.13.9.42,11.93-1.01,24.19-4.28,36.76-6.68,25.62-20.13,47.01-40.35,64.16-12.1,10.26-25.59,18.61-40.47,25.05-1.12.49-1.76,1.68-1.52,2.88l3.84,19.52c.21,1.06,1.24,1.74,2.3,1.53.09-.02.18-.04.27-.07,14.72-5.23,28.56-11.99,41.51-20.28.23-.15.39-.36.49-.65.27.02.5-.03.7-.16,22.45-14.52,43.21-32.75,59.19-54.8,21.16-29.2,30.04-67.94,3.11-97.36-2.19-2.39-4.2-4.48-6.01-6.25-9.73-9.68-20.72-16.86-32.97-21.54-7.63-2.91-20.09-5.64-25.87-7.1-4.27-1.08-6.87-4.84-8.6-8.65-1.54-3.43-1.49-8.97-1.96-13.83-1.54-16.07-6.88-30.88-16.03-44.44-.15-.22-.44-.34-.89-.37-.19-.71-.66-1.49-1.4-2.36-13.4-15.74-32.07-27.48-51.9-33.78-23.77-7.55-48.26-11.21-73.47-10.96-40.91.39-79.87,8.79-116.9,25.18Z"/>
    <path d="M492.9,268.74c25.48,13.92,48.51,35.29,61.2,61.85,10.14,21.23,12.33,43.28,6.58,66.16-.05.19-.11.29-.18.32-.41.17-.89-.04-1.06-.46-.02-.04-.03-.08-.04-.12-2.29-9.02-4.7-18.01-7.21-26.96-10.87-38.73-30.82-72.07-59.84-100.03-.2-.17-.23-.46-.06-.66.15-.18.41-.22.61-.1Z"/>
    <path d="M250.4,443.19c-.14-.22-.08-.51.13-.65.08-.05.17-.08.27-.08.25,0,.45.06.6.17,12.74,9.32,25.24,17.64,37.5,24.97,13.62,8.13,28.26,15.28,44.01,20.21,5.77,1.81,13.61,3.58,23.51,5.3,16.76,2.91,32.87,5.18,48.32,6.82.29.03.49.29.46.57-.02.14-.08.26-.19.35-1.94,1.59-3.95,2.7-6.02,3.35-30.47,9.49-59.99,7.43-88.54-6.16-24.29-11.55-45.4-32.19-60.05-54.85Z"/>
  </g>
  <g>
    <path class="st0" d="M565.85,181.3c-23.37,14.84-45.52,31.12-66.47,48.85-6.47,5.47-12.89,10.88-19.24,16.21-6.22,5.23-12.45,9.17-18.7,11.82-8.53,3.63-17.88,2.77-26.07-.1-7.9-2.77-19.78-7.92-35.64-15.46-.19-.09-.61-.14-1.27-.17-.83-.03-.86-.06-.07-.08.51,0,1.05-.09,1.61-.25,13.77,1.63,27.51,3.66,41.2,6.07,6.75,1.19,11.5,1.61,14.25,1.26,5.71-.74,11.16-3.05,16.33-6.92,20.41-15.27,37.82-28.19,52.25-38.76,12.85-9.41,26.79-16.9,41.82-22.47Z"/>
    <path class="st0" d="M809.52,203.22c.45.03.74.15.89.37,9.15,13.56,14.49,28.37,16.03,44.44.47,4.86.42,10.4,1.96,13.83,1.73,3.81,4.33,7.57,8.6,8.65,5.78,1.46,18.24,4.19,25.87,7.1,12.25,4.68,23.24,11.86,32.97,21.54-9.29-2.67-18.31-5.24-27.08-7.69-1.98-.55-7.69-1.33-17.12-2.34-2.61-.27-5.48-.99-8.6-1.65-20.26-4.24-21.91-23.01-23.85-40.26-.55-4.82-1.18-9.06-1.89-12.71-2.05-10.52-4.64-20.95-7.78-31.28Z"/>
    <path class="st0" d="M838.85,457.72c-.1.29-.26.5-.49.65-12.95,8.29-26.79,15.05-41.51,20.28-1.02.36-2.14-.17-2.5-1.19-.03-.09-.06-.18-.07-.27l-3.84-19.52c-.24-1.2.4-2.39,1.52-2.88,14.88-6.44,28.37-14.79,40.47-25.05,20.22-17.15,33.67-38.54,40.35-64.16,3.27-12.57,4.7-24.83,4.28-36.76-.01-.44-.06-.74-.13-.9-.14-.32-.51-.46-.83-.32-.16.07-.28.2-.34.37-5.86,17.08-13.5,33.12-22.92,48.12-6.03,9.61-13.1,18.2-21.2,25.79-16.05,15.02-33.97,27.14-53.77,36.35-.6.28-1.29.28-1.89,0l-29.48-13.6c-.64-.29-.92-1.05-.63-1.68.08-.17.19-.31.33-.43,34.18-29.49,71.08-71.29,71.25-119.23.01-4.21-.19-8.2-.62-11.97-.04-.32-.33-.56-.65-.52-.22.02-.41.17-.49.38-16.54,44.55-42.96,82.22-79.26,113.01-4.69,3.99-9.86,7.4-15.5,10.24-.7.35-1.51.44-2.26.24-31.53-8.31-63.41-11.5-95.64-9.55-62.17,3.75-122.52,28.86-166.05,73.34-.07.07-.12.16-.15.25-.07.19-.1.29-.1.3.07.31.39.5.71.43.07-.02.13-.05.19-.09,40.07-26.97,83.4-44.2,129.99-51.71,19.8-3.19,39.96-4.25,61.9-3.78,1.11.03,2.13.07,3.06.13,17.42,1.17,31.63,2.73,42.62,4.68,29.63,5.25,56.73,14.8,82.82,28.84.98.53,1.69,1.46,1.93,2.55,8.95,40.58,26.91,78.28,46.34,114.55.22.4.07.91-.34,1.12-.14.08-.3.11-.46.1l-13.21-1.09c-8.55-11-17.12-22.92-25.73-35.77-6.79-10.14-12.35-19.23-16.68-27.27-8.7-16.17-15.57-32.82-20.6-49.95-.24-.83-.84-1.5-1.64-1.83-6.59-2.72-13.89-5.26-21.88-7.62-35.54-10.48-74.29-13.57-111.78-13.2-63.55.62-123.89,24.24-175.62,61.26-.29.2-.57.31-.86.32-.42.01-.77-.31-.79-.72,0-.12.02-.24.07-.35.63-1.35,2.27-3.99,4.94-7.94,15.83-23.4,35.78-43.52,59.85-60.37,14.42-10.09,29.84-19.05,46.27-26.88.79-.38,1.25-1.23,1.12-2.1-2.88-19.89-8.76-39.11-17.65-57.64-14.98-31.26-34.56-57.79-57.26-86.22-.33-.41-.58-.81-.76-1.19-.19-.39-.02-.87.37-1.05.15-.07.31-.09.47-.07,31.73,4.92,61.28,21.95,79.51,48.71,18.08,26.55,24.07,60.66,18.44,92.58-.08.44.21.85.65.93.09.02.17.02.26,0,29.47-4.51,58.81-6.5,88.01-5.95,20.83.39,41.38,2.79,61.67,7.21.63.14,1.29-.04,1.77-.47,38.99-35.13,69.48-77.05,91.48-125.74.15-.33.34-.6.58-.83.36-.34.92-.32,1.26.04.09.1.16.22.2.34,2.47,8.09,4.08,16.78,4.81,26.08,3.52,44.66-14.28,87.18-45.08,119.23-.74.77-.71,1.99.05,2.72.15.14.32.26.5.35,2.33,1.12,5.04,2.69,7.35,2.97.39.05,1.11-.26,2.15-.92,43.05-27.35,72.36-65.26,87.92-113.74.18-.57.79-.88,1.36-.7.27.09.5.27.63.52,22.23,41.54,1.17,96.95-25.18,131.23-2.5,3.25-6.96,8.63-13.38,16.13-.25.29-.32.58-.23.88ZM492.9,268.74c-.22-.14-.51-.07-.65.15-.13.2-.08.46.1.61,29.02,27.96,48.97,61.3,59.84,100.03,2.51,8.95,4.92,17.94,7.21,26.96.11.45.55.72.98.62.04,0,.08-.02.12-.04.07-.03.13-.13.18-.32,5.75-22.88,3.56-44.93-6.58-66.16-12.69-26.56-35.72-47.93-61.2-61.85Z"/>
    <path class="st0" d="M417.35,494.97c.41.05.71.41.67.82-.02.16-.08.3-.19.42-10.95,12.08-25.45,21.15-41.84,23.45-14.93,2.09-29.74,1.31-44.42-2.34-13.57-3.38-26.86-9.88-39.85-19.5-14.3-10.58-26.26-22.75-35.89-36.51-6.85-9.78-12.93-21.57-15.07-32.31-.05-.25-.06-.44-.02-.55.14-.43.6-.66,1.04-.52.1.03.2.09.28.16,24.81,21.87,54.19,37.38,86.1,47.98,28.57,9.49,58.3,15.79,89.19,18.9ZM250.4,443.19c14.65,22.66,35.76,43.3,60.05,54.85,28.55,13.59,58.07,15.65,88.54,6.16,2.07-.65,4.08-1.76,6.02-3.35.22-.18.26-.51.08-.73-.09-.11-.21-.17-.35-.19-15.45-1.64-31.56-3.91-48.32-6.82-9.9-1.72-17.74-3.49-23.51-5.3-15.75-4.93-30.39-12.08-44.01-20.21-12.26-7.33-24.76-15.65-37.5-24.97-.15-.11-.35-.17-.6-.17-.26,0-.47.2-.48.46,0,.1.03.19.08.27Z"/>
    <path class="st0" d="M331.15,625.61c-2.44-2.64-4.04-5.61-4.8-8.91-.21-.89-.16-1.82.15-2.68,5.3-15.01,14.1-28.76,24.52-41.02,9.01-10.6,18.99-20.71,29.92-30.34.32-.29.35-.78.06-1.1-.15-.16-.35-.26-.57-.26-.43,0-1,.14-1.69.42-22.06,8.93-39.91,22.68-53.55,41.27-9.47,12.9-14.91,23.34-9.17,38.33.27.71-.08,1.5-.8,1.78-.08.03-.17.06-.26.07-7.32,1.26-14.13,2.33-20.68,2.23-14.85-.21-29.22-3.4-43.11-9.56-6.81-3.01-13.96-6.68-21.44-10.99-.16-.09-.36-.04-.45.11-.06.1-.06.22,0,.33,17.25,33.78,61.99,43.6,96.25,37.09,3.62-.69,6.48,3.34,5.13,6.54-.38.89-1.51,1.91-3.4,3.06-8.08,4.91-16.46,8.42-25.13,10.54-5.8-1.27-11.53-2.4-17.2-3.39-8.61-1.49-14.31-2.69-17.11-3.62-34.74-11.49-49.16-40.77-62.03-72.27-.14-.34-.18-.6-.11-.77.12-.3.44-.47.73-.36.04.02.08.04.12.06,26.47,19.43,56.21,26.97,89.24,22.62,2.5-.33,4.31-1.45,5.42-3.36,14.26-24.41,34.03-43.73,58.82-57.39,13.07-7.21,27.07-12.84,41.99-16.91.25-.06.5.09.56.33.04.16,0,.33-.13.45-22.07,19.87-41.03,42.34-56.87,67.41-4.89,7.74-9.69,17.84-14.4,30.29Z"/>
    <path class="st0" d="M163.73,544.25c.48,3.36.94,6.63,1.38,9.82.56,3.99,1.1,7.25,1.63,9.78,7.53,35.81,25.53,65.76,54.02,89.84-4.87-2.16-9.87-4.97-15-8.44-24.54-16.59-40.11-39.56-43.03-69.5-1.03-10.57-.69-21.07,1-31.5Z"/>
  </g>
</svg>
