<svg xmlns="http://www.w3.org/2000/svg" id="Layer_1" version="1.1" viewBox="62.68 343.86 1646.51 1085.73">
  <!-- Generator: Adobe Illustrator 30.4.0, SVG Export Plug-In . SVG Version: 2.1.4 Build 226)  -->
  <defs>
    <style>
      .st0 {
        fill: #0cc0df;
      }

      .st1 {
        fill: #fff;
      }
    </style>
  </defs>
  <path class="st1" d="M304.14,368.32c.6,2.49,1.2,4.91,1.8,7.25,1.24,4.81,1.75,9.16,2.29,13.08.78,5.81,3.12,10.18,9.38,11,6.75.88,12.93,2.33,18.52,4.36,8.6,8.59,10.23,18.7,4.89,30.31-5.15,11.21-15.54,20.78-26.09,27.27,8.47-9.15,13.94-19.38,16.42-30.7,1.78-8.11,1.42-15.9-2.21-23.26-.12-.24-.4-.34-.64-.22-.12.06-.21.16-.25.29-5.8,17.82-16.54,31.65-32.22,41.48-.34.21-.75.28-1.15.2-.79-.17-1.53-.51-2.23-1.02-.36-.26-.44-.76-.19-1.11.02-.03.05-.06.08-.09,13.46-13.94,20.17-34.13,14.69-53.01-.06-.19-.27-.3-.46-.24-.1.03-.18.1-.23.2-7.89,17.67-18.98,33.01-33.28,46-.3.28-.71.39-1.11.31-12.91-2.66-26.54-3.31-40.89-1.96-7.47.7-11.88,1.21-13.23,1.52-.25.06-.5-.11-.56-.36,0-.04-.01-.08-.01-.12.02-.31.15-2.07.38-5.29,1.69-23.44-13.01-41.99-35.96-46.32-.29-.06-.58.14-.63.43-.03.16.01.32.11.45,12.57,15.46,24.41,32.46,27.43,52.65.05.36-.14.72-.47.87-16.09,7.46-31.38,19.27-40.46,34.64-.09.16-.04.36.11.45.05.03.1.04.16.05.13,0,.27-.04.42-.15,18.92-13.61,40.61-22.07,63.94-22.28,16.74-.16,33.49,1.27,48.99,7.65.33.13.58.41.68.75,2.51,8.26,6.02,16.06,10.55,23.39,2.87,4.65,6.96,10.58,12.27,17.78-33.73-2.62-64.48,1.3-94.08,14.1-3.13,1.35-8.72,4.01-16.77,7.96-6.49,3.19-11.87,6.24-16.13,9.15-10.31,7.05-19.27,15.1-26.89,24.15-.28.32-.76.37-1.08.1-.07-.06-.13-.13-.17-.21l-20.65-36.35c4.73-13.72,15.18-26.27,25.86-35.8.1-.1.1-.26,0-.35-.06-.06-.15-.08-.23-.07-16.37,4.39-28.74,13.6-37.09,27.64-.2.32-.53.55-.9.61-12.11,1.94-23.11-.67-33-7.84-.12-.09-.28-.06-.36.06-.05.07-.06.17-.04.25,3.82,10.13,8.98,19.93,18.81,24.79,1.48.73,4.04,1.5,7.69,2.3,2.57.57,5.18,1.22,7.83,1.95-10.84,2.51-21.15,1.03-30.92-4.45.19-.39.17-.68-.06-.87-8.57-7.69-14.22-17.15-16.95-28.38-.73-2.97-1.42-5.99-2.07-9.05,1.84-15.75,10.37-27.08,22.98-35.99,1.29-.91,1.9-2.4,1.8-4.21-.14-2.35-.26-5.71-.37-10.06-.57-23.63,14.57-43.63,34.96-55.09,8.97-5.04,18.2-7.01,27.7-5.9,5.88,3.43,10.59,5.53,14.14,6.28,3.37.72,6.03.53,7.97-.57,3.11-1.77,5.02-2.94,5.72-3.53,8.38-7.12,13.75-11.58,16.12-13.39,2.71-2.07,7.89-5.72,15.53-10.97,14.34-6.47,29.48-9.66,45.41-9.55,12.65.09,26.77,2.95,37.21,10.25,2.75,1.93,5.15,4.19,7.19,6.79ZM160.57,475.5c-6.57-.91-11.84-1.74-15.8-2.5-17.3-3.3-34.27-10.14-48.02-21.89-.18-.15-.44-.13-.59.04-.08.1-.12.22-.09.35,1.96,9.69,11.16,19.66,19.24,25.43,8.53,6.09,17.93,8.67,28.22,7.74,7.11-.64,12.65-3.7,17.23-8.66.12-.12.11-.31-.02-.43-.05-.05-.11-.07-.17-.08Z"/>
  <g>
    <path d="M440.07,693.55c.53-2.51.48-4.83-.16-6.96l-.09-24.36c0-.12-.1-.22-.22-.22-.06,0-.11.02-.15.06-.11.11-.19.24-.24.38-.17.46-19.17,60.72-57.02,180.78-.11.36-.45.61-.84.62l-50.03.66c-.44,0-.83-.29-.96-.71l-47.48-159.79c-.04-.11-.15-.17-.26-.14-.09.03-.15.11-.15.21l1.48,186.65c0,.35-.27.63-.62.65l-133.55,6.03c-.29.02-.53-.21-.55-.5,0-.01,0-.02,0-.03l.39-309.24c0-.38-.1-.75-.3-1.08l-16.18-27.2c-.18-.31-.58-.41-.89-.23,0,0,0,0,0,0-25.57,16.17-57.82.67-66.96-26.43-2.92-8.66-3.39-17.69-1.4-27.09,2.39-11.3,8.55-22.27,17.76-29.8,2.8-2.29,4.84-3.95,6.13-4.96.2-.16.31-.4.3-.65-.23-4.47-.35-8.14-.36-11.01-.06-24.41,15.03-45.62,35.68-57.32,15.14-8.58,29.43-7.54,46.68-3.81.29.07.59.09.9.07,2.63-.15,4.8-.87,6.51-2.16,3.75-2.83,8.97-6.77,15.67-11.81,9.29-7,20.42-12.28,33.37-15.85,13.77-3.79,27.21-5.16,40.32-4.11,18.58,1.5,36.74,10.73,44.08,28.35,1.75,4.19,2.94,8.43,3.57,12.72.08.52.46.95.97,1.07,15.19,3.63,25.47,12.66,30.86,27.07,10.52,28.15-19.7,53.59-42.25,62.63-.34.14-.52.52-.4.87,1.58,4.67,2.8,8.51,3.67,11.52,1.75,6.04,5.49,12.42,7.71,18.01.66,1.66.73,3.57.2,5.74-.05.22-.05.44.02.65,29.11,90.39,44.55,138.32,46.32,143.8.07.23.17.39.3.49.13.11.33.09.44-.04.02-.03.04-.06.05-.09l76.21-204.84c.14-.37.49-.63.89-.63l155.98-2.07c.29,0,.53.23.54.52,0,.01,0,.03,0,.04l-21.17,428.82c-.02.31-.27.56-.58.58l-132.15,7.51c-.24.02-.44-.17-.46-.41,0-.01,0-.02,0-.03l-1.57-192.94ZM214.33,360.83c-4.63,1.55-9.27,4-13.9,7.37-6.7,4.86-13.36,9.79-19.97,14.78-2.89,2.18-5.96,2.97-9.21,2.36-6.73-1.26-12.2-2.04-16.4-2.33-9.5-1.11-18.73.86-27.7,5.9-20.39,11.46-35.53,31.46-34.96,55.09.11,4.35.23,7.71.37,10.06.1,1.81-.51,3.3-1.8,4.21-12.61,8.91-21.14,20.24-22.98,35.99-2.28,17.37,4.08,30.13,19.08,38.3,9.77,5.48,20.08,6.96,30.92,4.45,3.67-.76,7.22-2.24,10.64-4.44.79-.5,1.02-1.55.52-2.33-.34-.53-.94-.83-1.57-.78-2.35.19-4.18.73-6.46.7-11.66-.16-22.46-3.67-28.58-13.61-.07-.12-.03-.28.09-.36.08-.05.18-.05.26,0,9.7,5.65,19.24,8.39,30.55,6.17.3-.06.5-.36.44-.66,0-.02-.01-.05-.02-.07-1.25-3.71-.9-7.18,1.06-10.42,5.25-8.67,12.63-14.9,22.12-18.67.12-.05.26.01.31.13.04.09.01.2-.06.26-8.39,7.84-15.42,15.27-19.64,25.89-.12.29-.16.62-.11.93.22,1.5.85,2.74,1.88,3.72l20.65,36.35c.21.37.67.49,1.04.28.08-.04.15-.1.21-.17,7.62-9.05,16.58-17.1,26.89-24.15,4.26-2.91,9.64-5.96,16.13-9.15,8.05-3.95,13.64-6.61,16.77-7.96,29.6-12.8,60.35-16.72,94.08-14.1l5,.63c.21.03.4-.11.43-.32.01-.08,0-.17-.04-.24-7.16-13.61-13.51-27.12-17-42.07-.08-.36-.32-.66-.64-.83-13.01-6.9-26.75-10.88-41.24-11.95-7.76-.57-14.88-.53-21.35.11-19.39,1.91-37.37,8.32-53.96,19.23-.12.09-.29.06-.38-.07-.08-.11-.06-.27.04-.36,25.79-24.85,60.38-31.11,94.98-22.71.3.08.61.04.88-.1,2.22-1.13,4.09-2.34,5.61-3.61,13.25-11.09,22.92-24.77,28.99-41.06.04-.1.16-.14.25-.09.06.03.1.08.11.14,2.03,19.11-12.11,35.9-25.67,47.47-.26.22-.29.6-.07.86.06.07.13.12.21.16l10.63,4.88c.27.12.59.12.86-.01,13.86-6.67,24.87-15.98,31.61-30.13,1.45-3.05,2.78-6.22,3.98-9.49.05-.13.21-.2.34-.14.09.04.16.13.16.23.04,21.67-11.77,36.65-30.81,45.45-.56.26-.87.86-.75,1.46l1.31,6.72c.09.47.54.78,1.01.7.05,0,.09-.02.14-.04,6.03-2.11,11.14-4.71,15.32-7.8,10.55-6.49,20.94-16.06,26.09-27.27,5.34-11.61,3.71-21.72-4.89-30.31-5.45-5.45-11.97-8.89-19.56-10.31-2.64-.49-4.4-1.11-5.21-3.57-.7-2.1-1.11-4.46-1.24-7.09-.23-4.69-2.23-9.59-5.98-14.72-2.04-2.6-4.44-4.86-7.19-6.79-10.44-7.3-24.56-10.16-37.21-10.25-15.93-.11-31.07,3.08-45.41,9.55Z"/>
    <path d="M188.83,393c5.49,3.04,10.36,6.88,14.59,11.52,8.97,9.84,12.26,21.28,9.87,34.33-.04.21-.25.35-.46.31-.15-.03-.26-.14-.3-.29-1.09-4.79-2.25-9.09-3.49-12.91-4.07-12.55-10.87-23.45-20.42-32.68-.06-.08-.05-.19.02-.25.05-.04.12-.05.19-.03Z"/>
    <path d="M1118.62,495c10.71-11.73,21.43-22.32,34.59-30.78,5.67-3.64,13.03-7.04,22.08-10.21,17-5.96,36.57-6.01,54.2-2.21,65.46,14.1,86.57,82.49,94.59,139.88,2.97,21.24,4.64,43.1,4.99,65.58,1.07,68.19-.05,135.41-3.35,201.66-.02.31-.27.55-.57.54l-166.97-3.83c-.45,0-.8-.38-.79-.83,0-.04,0-.08.01-.12,7.2-39.79,12.96-78.27,17.29-115.44,3.25-27.91,5.03-55.49,5.34-82.74.23-19.82-.75-39.07-2.96-57.76-1.83-15.42-4.7-30.82-13.87-43.38-.33-.46-1.52-1.15-3.56-2.08-1.24-.57-2.6-.84-4.09-.83-6.46.05-12.13,2.25-17,6.6-13.05,11.62-18.12,31.14-20.63,47.87-2.18,14.51-3.5,30.29-3.95,47.33-2.67,100.53-4.54,169.1-5.62,205.73-.01.37-.3.66-.66.67l-147.94,5.6c-.27.01-.5-.19-.51-.46,0-.02,0-.03,0-.05,3.35-54.49,6.48-106.15,9.41-154.99,5.13-85.57,9.35-170.49,12.67-254.77,0-.26.21-.47.47-.48l136.67-6.18c.34-.02.62.24.64.58,0,.02,0,.03,0,.05l-1.03,44.83c0,.18.15.32.32.32.09,0,.17-.04.23-.1Z"/>
    <path d="M909.21,717.96c.09.11.13.2.12.28,0,.08-4.48,43.84-13.43,131.27-.05.52-.32,1-.74,1.3-13.26,9.8-27.71,17.11-43.36,21.93-29.53,9.11-58.97,11.97-88.33,8.59-24.06-2.76-46.15-10.52-66.26-23.29-42.67-27.07-68.88-73.28-79.42-122.08-9.33-43.18-8.77-86.43,1.68-129.76,12.58-52.16,42.03-103.11,88.82-131.06,29.48-17.61,62.93-24.77,97.18-22.83,42.81,2.41,77.04,20.34,102.67,53.8,7.11,9.27,13.44,20.11,18.99,32.5,20.81,46.43,23.46,100.58,16.67,150.51-.04.32-.3.56-.63.59-28.77,1.85-57.24,4.79-85.42,8.82-34.12,4.89-71.17,10.31-111.14,16.26-.32.04-.54.34-.5.66,0,.04.01.07.03.11,3.33,9.65,8.58,18.25,15.77,25.78,18.1,18.96,43.65,23.55,68.4,16.22,28.38-8.4,53.81-23.53,78.34-39.67.18-.12.42-.09.56.07ZM744.25,638.75l85.19-8.3c.39-.04.69-.35.72-.74.6-9.65-.47-19.03-3.21-28.14-3.65-12.18-12.14-23.76-25.21-25.77-9.59-1.47-18.31.56-26.15,6.07-6.38,4.49-11.49,9.72-15.33,15.69-7.87,12.23-13.31,25.85-16.31,40.86-.03.15.07.3.22.33.02,0,.05,0,.08,0Z"/>
    <path d="M155.39,477.02c.28.02.49.26.47.54-.01.19-.13.36-.31.44-12.82,5.46-28.31,2.68-39.5-4.84-6.43-4.32-11.76-9.71-15.99-16.18-.1-.14-.06-.32.08-.42.11-.07.25-.07.36,0,11.38,8.34,22.42,15.23,36.25,17.9,6.41,1.23,12.62,2.08,18.64,2.55Z"/>
    <path d="M345.45,995.63c.07.15.24.21.38.14.04-.02.08-.05.11-.08,12.41-15.31,28.35-27.51,48.87-29.24,51.72-4.38,72.52,41.34,79.45,83.79,2.93,17.93,4.67,36.68,5.24,56.26,1.06,36.51,1.25,73.84.57,112-.01.35-.29.63-.64.63h-103.3c-.3,0-.55-.25-.54-.56,0-.02,0-.04,0-.06,2.55-18.25,4.86-36.17,6.91-53.76,2.77-23.72,4.05-47.39,3.82-71-.12-12.95-1.35-26.24-3.69-39.86-1.13-6.53-3.14-12.54-6.03-18.01-2.53-4.79-6.64-6.04-12.31-3.75-6.8,2.74-10.46,8.39-12.91,15.27-4.72,13.27-6.06,28.1-6.08,42.35-.1,49.59-.16,93.79-.19,132.6,0,.39-.3.71-.69.73l-91.48,5.74c-.23.02-.42-.15-.44-.38,0-.02,0-.03,0-.05.77-19.45,1.97-53,3.6-100.63,1.87-54.47,3.12-105.79,3.76-153.97,0-.14.1-.25.24-.26l84.73-6.06c.24-.02.45.17.47.41,0,.01,0,.02,0,.03v27.38s0,.04.01.05l.14.29Z"/>
    <path d="M1592.14,1384.77c.14.24.05.55-.2.68-.05.03-.09.04-.14.06l-136.23,26.56c-.21.04-.42-.08-.5-.29l-46.74-129.4c-.09-.24-.32-.39-.57-.38l-36.87,1.39c-.26.01-.47.22-.48.48l-5.43,125.87c-.02.38-.33.68-.71.68h-129.97c-.29,0-.52-.24-.52-.53,0,0,0,0,0-.01,2.19-105.95,3.59-171.74,4.21-197.38,1.43-59.17,2.63-116.3,3.61-171.38.27-14.95,1.09-33.1,1.93-46.8.02-.26.19-.48.43-.57,30.93-11.62,63.03-19.19,96.31-22.7,21.63-2.28,44.53-3.43,68.7-3.46,18.47-.02,35.21,1.38,50.2,4.21,38.35,7.23,74.65,24.72,100.27,54.18,20.27,23.31,31.5,50.6,33.68,81.87,1.32,18.95.16,37.39-3.47,55.32-4.23,20.91-12.72,39.17-25.46,54.78-11.9,14.59-27.21,27.29-43.56,37.41-.42.26-.56.81-.32,1.24l71.83,128.17ZM1374.37,1188.49c14.99.82,29.3-1.22,42.95-6.12,18.52-6.64,35.69-21.33,38.74-41.23,3.77-24.6-4.02-52.74-28.37-63.89-14.87-6.81-32.72-6.66-48.07-2.33-.38.11-.65.45-.66.84l-4.86,112.43c0,.16.11.29.27.3Z"/>
    <path d="M820.06,1392.73l121.05-405.51c.12-.4.48-.68.89-.7l101.97-5.15c.23-.01.43.16.44.39,0,.03,0,.06,0,.09-13.18,95.41-21.7,157.07-25.55,184.98-2.01,14.53-3.83,25.55-5.47,33.06-3.02,13.82-6.25,28.96-9.68,45.42-.08.38.16.75.54.83.05.01.1.02.15.02h31.86c.35,0,.63.28.63.63h0v92.1c0,.34-.27.61-.61.61h-45.1c-.28,0-.51.19-.57.46l-15.04,68.03c-.07.32-.37.53-.69.5l-154.44-15.19c-.25-.03-.42-.25-.4-.49,0-.03,0-.05.02-.08Z"/>
    <path d="M669.86,1152.24s.03-.05.03-.07c0-.03-.03-.05-.05-.05l-28.36-2.02c-.31-.02-.55-.29-.53-.61,0,0,0,0,0,0l2.32-33.3c.02-.3.28-.52.57-.5,0,0,0,0,0,0l33.18,2.31c.35.02.62.32.6.68,0,0,0,0,0,.01l-1.51,21.74c-.02.33.23.62.56.64,0,0,0,0,0,0l20.96,1.46c.74.06,1.38-.49,1.44-1.23,0,0,0,0,0,0l1.45-20.9c.02-.33.31-.58.64-.56,0,0,0,0,0,0l32.95,2.29c.4.03.7.37.67.78,0,0,0,0,0,0l-1.51,21.81c-.02.2-.19.35-.38.33,0,0,0,0,0,0l-33-2.29c-.51-.04-.96.34-1,.84,0,0,0,.01,0,.02l-1.5,21.58c-.02.26-.24.46-.51.44,0,0,0,0-.01,0l-10.17-.7c-.42-.03-.79.28-.82.71,0,0,0,0,0,0l-1.49,21.5c-.03.34-.33.6-.67.58l-21.75-1.51c-.33-.02-.61.22-.63.54,0,0,0,0,0,0l-1.47,21.06c-.04.62-.58,1.09-1.2,1.05l-21.2-1.48c-.33-.02-.57-.3-.55-.62,0,0,0,0,0-.01l2.29-33.06c.03-.38.36-.67.74-.64,0,0,0,0,0,0l21.73,1.51c.26.02.5-.18.52-.45,0,0,0,0,0-.01l.72-10.34c.02-.3.28-.52.58-.5,0,0,0,0,0,0l9.81.68c.61.05,1.14-.42,1.19-1.04,0,0,0,0,0,0l.69-9.9c.02-.33-.23-.61-.56-.63-.01,0-.03,0-.04,0l-4.57.05c-.09,0-.16-.06-.17-.13,0-.02,0-.04.01-.05Z"/>
    <path d="M727.57,1212.91c-.61.52-1.63.73-3.07.64-13.73-.89-27.47-1.86-41.22-2.93-.36-.03-.64-.34-.61-.71,0,0,0,0,0,0l1.5-21.61c.02-.33.3-.57.63-.55,0,0,0,0,0,0,3.62.19,10.92.7,21.9,1.55.05,0,.13-.05.25-.16.13-.11.19-.18.2-.23.71-10.99,1.23-18.29,1.56-21.9.03-.32.31-.56.63-.54l21.61,1.57c.36.02.64.33.62.7,0,0,0,0,0,0-.89,13.76-1.87,27.5-2.93,41.23-.11,1.44-.47,2.42-1.07,2.94Z"/>
    <path d="M511.53,1327.65l-1.37-41.52c3.31.65,5.94-.04,7.89-2.05,2.89-2.97,5.08-5.21,6.57-6.71,18.33-18.43,40.27-23.39,66.13-23.89,33.05-.65,65.96-1.08,98.75-1.29,3.34-.03,6.04,1.02,8.1,3.14,4.02,4.12,4.82,11.68-.75,14.85-1.21.69-3.35,1.08-6.42,1.19-62.05,2.19-96.39,3.41-103,3.64-8.17.29-14.65,1.01-15.47,9.77-.5,5.3,3.32,10.03,8.54,10.02,27.3-.03,64.32-1.25,111.07-3.65,3.91-.2,9.44,1.32,11.46,5.16,1.82,3.46,1.61,6.96-.63,10.49-.21.32-.46.6-.75.83-2.94,2.28-6.16,3.44-9.65,3.49-39.02.47-74.65,1.58-106.88,3.33-4.33.24-7.11.86-8.36,1.85-3.55,2.83-4.6,7.58-2.7,11.8,1.87,4.15,5.27,6.15,10.21,6.02,23.93-.64,60.05-1.72,108.35-3.24,2.79-.09,4.82.15,6.07.72,5.48,2.48,5.77,9.44,2.57,13.97-1.98,2.81-4.89,4.32-8.73,4.54-34.98,2.04-66.73,3.73-95.26,5.07-16.78.78-33.44.31-47.96-5.34-10.61-4.13-19.28-10.54-27.73-18.53-3.05-2.88-5.99-4.02-10.05-3.66Z"/>
    <path d="M1170.58,1255.08c.32.37.49.58.5.65,12.27,46.24,24.37,90.74,36.32,133.51,1.92,6.87,2.93,11.14,3.02,12.8.88,15.18-11.08,25.53-25.25,27.34-12.24,1.57-22.66-5.8-25.59-17.64-.86-3.46-1.86-8.16-2.99-14.1-2.03-10.62-10.46-53.34-25.31-128.16-.19-.99-1.07-2.32-2.63-3.97l41.93-10.43Z"/>
  </g>
  <g>
    <path class="st0" d="M214.33,360.83c-7.64,5.25-12.82,8.9-15.53,10.97-2.37,1.81-7.74,6.27-16.12,13.39-.7.59-2.61,1.76-5.72,3.53-1.94,1.1-4.6,1.29-7.97.57-3.55-.75-8.26-2.85-14.14-6.28,4.2.29,9.67,1.07,16.4,2.33,3.25.61,6.32-.18,9.21-2.36,6.61-4.99,13.27-9.92,19.97-14.78,4.63-3.37,9.27-5.82,13.9-7.37Z"/>
    <path class="st0" d="M304.14,368.32c3.75,5.13,5.75,10.03,5.98,14.72.13,2.63.54,4.99,1.24,7.09.81,2.46,2.57,3.08,5.21,3.57,7.59,1.42,14.11,4.86,19.56,10.31-5.59-2.03-11.77-3.48-18.52-4.36-6.26-.82-8.6-5.19-9.38-11-.54-3.92-1.05-8.27-2.29-13.08-.6-2.34-1.2-4.76-1.8-7.25Z"/>
    <path class="st0" d="M314.93,461.59c-4.18,3.09-9.29,5.69-15.32,7.8-.45.16-.95-.07-1.11-.52-.02-.04-.03-.09-.04-.14l-1.31-6.72c-.12-.6.19-1.2.75-1.46,19.04-8.8,30.85-23.78,30.81-45.45,0-.14-.13-.26-.27-.25-.1,0-.19.07-.23.16-1.2,3.27-2.53,6.44-3.98,9.49-6.74,14.15-17.75,23.46-31.61,30.13-.27.13-.59.13-.86.01l-10.63-4.88c-.31-.14-.44-.5-.3-.81.04-.08.09-.15.16-.21,13.56-11.57,27.7-28.36,25.67-47.47-.02-.1-.11-.17-.22-.16-.06,0-.12.05-.14.11-6.07,16.29-15.74,29.97-28.99,41.06-1.52,1.27-3.39,2.48-5.61,3.61-.27.14-.58.18-.88.1-34.6-8.4-69.19-2.14-94.98,22.71-.11.11-.11.28,0,.4.09.1.24.11.35.03,16.59-10.91,34.57-17.32,53.96-19.23,6.47-.64,13.59-.68,21.35-.11,14.49,1.07,28.23,5.05,41.24,11.95.32.17.56.47.64.83,3.49,14.95,9.84,28.46,17,42.07.1.18.04.41-.15.52-.07.04-.16.06-.24.04l-5-.63c-5.31-7.2-9.4-13.13-12.27-17.78-4.53-7.33-8.04-15.13-10.55-23.39-.1-.34-.35-.62-.68-.75-15.5-6.38-32.25-7.81-48.99-7.65-23.33.21-45.02,8.67-63.94,22.28-.15.11-.29.16-.42.15-.18,0-.32-.16-.32-.34,0-.06.02-.11.05-.16,9.08-15.37,24.37-27.18,40.46-34.64.33-.15.52-.51.47-.87-3.02-20.19-14.86-37.19-27.43-52.65-.19-.24-.15-.58.08-.77.12-.1.28-.14.44-.11,22.95,4.33,37.65,22.88,35.96,46.32-.23,3.22-.36,4.98-.38,5.29-.01.26.19.48.45.49.04,0,.08,0,.12-.01,1.35-.31,5.76-.82,13.23-1.52,14.35-1.35,27.98-.7,40.89,1.96.4.08.81-.03,1.11-.31,14.3-12.99,25.39-28.33,33.28-46,.08-.19.3-.27.49-.19.1.04.17.13.2.23,5.48,18.88-1.23,39.07-14.69,53.01-.31.31-.3.81.02,1.12.03.03.06.05.09.08.7.51,1.44.85,2.23,1.02.4.08.81.01,1.15-.2,15.68-9.83,26.42-23.66,32.22-41.48.08-.25.35-.4.6-.32.13.04.23.13.29.25,3.63,7.36,3.99,15.15,2.21,23.26-2.48,11.32-7.95,21.55-16.42,30.7ZM188.83,393c-.09-.04-.2,0-.24.09-.03.06-.02.13.03.19,9.55,9.23,16.35,20.13,20.42,32.68,1.24,3.82,2.4,8.12,3.49,12.91.05.21.27.33.47.28.14-.04.26-.15.29-.3,2.39-13.05-.9-24.49-9.87-34.33-4.23-4.64-9.1-8.48-14.59-11.52Z"/>
    <path class="st0" d="M160.57,475.5c.17.02.29.18.27.34,0,.06-.04.12-.08.17-4.58,4.96-10.12,8.02-17.23,8.66-10.29.93-19.69-1.65-28.22-7.74-8.08-5.77-17.28-15.74-19.24-25.43-.05-.22.1-.44.33-.48.13-.02.26,0,.35.09,13.75,11.75,30.72,18.59,48.02,21.89,3.96.76,9.23,1.59,15.8,2.5ZM155.39,477.02c-6.02-.47-12.23-1.32-18.64-2.55-13.83-2.67-24.87-9.56-36.25-17.9-.14-.1-.33-.07-.43.06-.08.1-.08.24,0,.35,4.23,6.47,9.56,11.86,15.99,16.18,11.19,7.52,26.68,10.3,39.5,4.84.26-.11.38-.41.28-.67-.07-.18-.24-.3-.44-.31Z"/>
    <path class="st0" d="M1548.82,843.43c.02-.16-.1-.31-.26-.34-.09-.01-.18.02-.25.09-12.52,12.15-27.63,19.52-45.32,22.09-66.93,9.73-116.42-42.03-137.95-99.8-6.13-16.43-9.94-32.61-11.43-48.53-.87-9.31-.87-25.95-.01-49.9,1.5-41.56,5.21-82.25,11.13-122.07,3.41-22.95,7.88-44.91,13.41-65.9.09-.33.4-.56.75-.54,27.41,1.91,56.11,3.56,86.12,4.93,19.63.89,38.22,1.31,55.77,1.26.26,0,.47.21.47.47,0,.04,0,.09-.02.13-19.48,68.56-39.32,138.42-39.65,209.93-.07,15.1.74,30.17,5.31,44.4,4.68,14.52,12.56,24.19,28.6,18.16,11.68-4.39,20.9-19.48,25.84-30.98,5.86-13.64,10.45-27.78,13.77-42.42,6.37-28.06,11.05-56.95,14.03-86.68,3.7-36.82,5.86-72.6,6.49-107.33.13-7.13-.17-14.23-.91-21.3-.03-.31.19-.58.5-.62.03,0,.06,0,.08,0,29.17,1.19,59.24,2.02,90.21,2.48,15.02.23,29.46.1,43.31-.38.2,0,.38.15.38.35,0,.02,0,.05,0,.07-12.18,85.16-21.2,162.73-30.67,254.25-6.07,58.65-11.23,110.13-15.47,154.45-.03.29-.27.52-.56.54l-118.72,6.75c-.33.02-.6-.23-.62-.55,0-.04,0-.08,0-.12l5.67-42.89Z"/>
    <path class="st0" d="M129.21,523.47c-1.03-.98-1.66-2.22-1.88-3.72-.05-.31,0-.64.11-.93,4.22-10.62,11.25-18.05,19.64-25.89.1-.08.11-.23.02-.32-.07-.07-.18-.1-.27-.07-9.49,3.77-16.87,10-22.12,18.67-1.96,3.24-2.31,6.71-1.06,10.42.1.29-.06.61-.35.71-.02,0-.05.01-.07.02-11.31,2.22-20.85-.52-30.55-6.17-.13-.07-.28-.02-.35.1-.05.08-.04.18,0,.26,6.12,9.94,16.92,13.45,28.58,13.61,2.28.03,4.11-.51,6.46-.7.93-.08,1.75.61,1.83,1.54.05.63-.25,1.23-.78,1.57-3.42,2.2-6.97,3.68-10.64,4.44-2.65-.73-5.26-1.38-7.83-1.95-3.65-.8-6.21-1.57-7.69-2.3-9.83-4.86-14.99-14.66-18.81-24.79-.05-.14.02-.29.16-.35.08-.03.17-.02.24.04,9.89,7.17,20.89,9.78,33,7.84.37-.06.7-.29.9-.61,8.35-14.04,20.72-23.25,37.09-27.64.14-.03.27.06.3.19.02.08,0,.17-.07.23-10.68,9.53-21.13,22.08-25.86,35.8Z"/>
    <path class="st0" d="M86.86,532.56c-15-8.17-21.36-20.93-19.08-38.3.65,3.06,1.34,6.08,2.07,9.05,2.73,11.23,8.38,20.69,16.95,28.38.23.19.25.48.06.87Z"/>
    <path class="st0" d="M440.07,693.55l-.16-6.96c.64,2.13.69,4.45.16,6.96Z"/>
    <path class="st0" d="M1170.58,1255.08l-41.93,10.43c-1.26-.86-2.5-1.43-3.71-1.72-2.45-.57-5.42-.65-8.92-.22-2.63.32-6.15-.14-10.57-1.38-6.34-1.78-10.49-6.01-12.45-12.7-4.52-15.43-7.54-30.08-9.76-46.5-4.94-36.41-9.46-67.11-13.55-92.09-3.23-19.71-5.25-34.51-6.07-44.41-1.32-15.87-2.31-30.94-2.97-45.22-.41-8.75.47-17.55,2.63-26.42,1.23-5.07,2.82-8.77,4.76-11.1,5.66-6.79,15.25-9.05,23.82-8.14.44.05.87.2,1.24.44,1.53,1,2.67,2.07,3.42,3.21,5.78,8.76,9.86,18.21,12.25,28.35,19.53,82.95,40.14,165.44,61.81,247.47Z"/>
    <path class="st0" d="M540.44,997.09c2.69-2.33,6.13-3.35,10.33-3.06,25.03,1.76,50.81,3.59,77.34,5.48.2.01.36.19.35.4,0,0,0,0,0,0-1.19,17.45-3.32,47.71-6.39,90.78,0,.08-.05.15-.12.21-.11.1-.21.15-.29.14-43.07-3.01-73.32-5.15-90.77-6.42-.21-.02-.37-.19-.35-.4,0,0,0,0,0,0,1.85-26.53,3.66-52.31,5.43-77.34.3-4.2,1.79-7.46,4.47-9.79ZM591.71,1031.86c.02-.22-.15-.41-.37-.43h0l-22.08-1.58c-.22-.02-.41.15-.43.37h0l-1.58,22.08c-.02.22.15.41.37.43h0l22.08,1.58c.22.02.41-.15.43-.37h0s1.58-22.08,1.58-22.08Z"/>
    <path class="st0" d="M738.91,1011.11c2.33,2.69,3.35,6.13,3.05,10.33-1.76,25.03-3.59,50.81-5.48,77.36-.02.2-.19.35-.4.34-17.46-1.19-47.73-3.33-90.81-6.4-.07,0-.14-.04-.2-.11-.1-.11-.15-.21-.14-.29,3.01-43.08,5.15-73.35,6.42-90.8.02-.21.19-.37.4-.35,0,0,0,0,0,0,26.55,1.86,52.33,3.67,77.36,5.44,4.2.3,7.47,1.79,9.8,4.48ZM706.15,1040.02c.02-.28-.19-.51-.46-.53h0l-21.93-1.53c-.28-.02-.51.19-.53.46l-1.53,21.93c-.02.28.19.51.46.53l21.93,1.53c.28.02.51-.19.53-.46l1.53-21.93Z"/>
    <path class="st0" d="M620.24,1114.19c.1.11.15.21.14.29-3.01,43.06-5.14,73.31-6.41,90.76-.02.21-.19.37-.4.35,0,0,0,0,0,0-26.53-1.85-52.31-3.66-77.33-5.43-4.2-.3-7.46-1.79-9.79-4.47-2.33-2.69-3.35-6.13-3.06-10.33,1.76-25.02,3.58-50.79,5.47-77.32,0-.2.19-.36.4-.35,0,0,0,0,.01,0,17.45,1.19,47.7,3.32,90.76,6.38.08,0,.15.05.21.12ZM583.59,1146.43c.02-.24-.16-.44-.4-.46h0l-22.05-1.5c-.24-.02-.44.16-.46.4h0l-1.5,22.05c-.02.24.16.44.4.46h0l22.05,1.5c.24.02.44-.16.46-.4l1.5-22.05Z"/>
    <path class="st0" d="M510.16,1286.13l1.37,41.52c-67.55,3.48-135.04,7.05-202.45,10.72-3.13.17-6.68.15-9.46.09-26.42-.62-30.6-41.5-4.85-48.69,1.96-.55,5.87-.86,11.73-.93,67.86-.85,135.75-1.75,203.66-2.71Z"/>
  </g>
</svg>
